<?xml version="1.0" encoding="UTF-8"?>
<!DOCTYPE svg PUBLIC "-//W3C//DTD SVG 1.1//EN" "http://www.w3.org/Graphics/SVG/1.1/DTD/svg11.dtd">
<svg xmlns="http://www.w3.org/2000/svg" version="1.1" width="256px" height="165px" style="shape-rendering:geometricPrecision; text-rendering:geometricPrecision; image-rendering:optimizeQuality; fill-rule:evenodd; clip-rule:evenodd" xmlns:xlink="http://www.w3.org/1999/xlink">
<g><path style="opacity:1" fill="#a69a87" d="M 206.5,-0.5 C 211.167,-0.5 215.833,-0.5 220.5,-0.5C 220.5,4.83333 220.5,10.1667 220.5,15.5C 218.167,15.5 215.833,15.5 213.5,15.5C 210.458,15.2671 207.792,14.2671 205.5,12.5C 206.485,8.36559 206.818,4.03225 206.5,-0.5 Z"/></g>
<g><path style="opacity:1" fill="#627e77" d="M 70.5,-0.5 C 98.1667,-0.5 125.833,-0.5 153.5,-0.5C 153.5,3.5 153.5,7.5 153.5,11.5C 140.497,11.7383 127.497,12.0716 114.5,12.5C 114.5,10.1667 114.5,7.83333 114.5,5.5C 112.167,5.5 109.833,5.5 107.5,5.5C 107.817,8.57186 107.484,11.5719 106.5,14.5C 104.22,15.1359 102.22,16.1359 100.5,17.5C 94.0348,20.9073 88.0348,25.074 82.5,30C 82.7284,30.3988 83.0618,30.5654 83.5,30.5C 80.1924,33.4715 76.859,36.4715 73.5,39.5C 73.1583,38.6618 72.4916,38.3284 71.5,38.5C 71.2552,34.3898 71.2552,30.0565 71.5,25.5C 71.7845,23.5853 71.4511,21.9187 70.5,20.5C 70.5,13.5 70.5,6.5 70.5,-0.5 Z"/></g>
<g><path style="opacity:1" fill="#454038" d="M 197.5,-0.5 C 198.833,-0.5 200.167,-0.5 201.5,-0.5C 200.993,0.85892 199.993,1.85892 198.5,2.5C 199.325,3.38568 200.325,3.71901 201.5,3.5C 201.646,5.94238 200.813,6.60905 199,5.5C 198.555,7.59428 199.388,9.09428 201.5,10C 200.263,10.2321 199.263,10.7321 198.5,11.5C 197.517,7.70159 197.183,3.70159 197.5,-0.5 Z"/></g>
<g><path style="opacity:1" fill="#25201d" d="M 233.5,-0.5 C 235.5,-0.5 237.5,-0.5 239.5,-0.5C 239.5,7.5 239.5,15.5 239.5,23.5C 239.959,27.0733 238.959,30.0733 236.5,32.5C 238.204,34.8493 240.537,35.8493 243.5,35.5C 242.395,37.2231 240.728,38.2231 238.5,38.5C 236.6,36.3805 234.934,34.0472 233.5,31.5C 233.5,23.1667 233.5,14.8333 233.5,6.5C 233.5,4.16667 233.5,1.83333 233.5,-0.5 Z"/></g>
<g><path style="opacity:1" fill="#7c887e" d="M 37.5,2.5 C 41.1667,2.5 44.8333,2.5 48.5,2.5C 48.5,4.83333 48.5,7.16667 48.5,9.5C 44.7307,9.75599 41.0641,9.42266 37.5,8.5C 37.5,6.5 37.5,4.5 37.5,2.5 Z"/></g>
<g><path style="opacity:1" fill="#191411" d="M 201.5,-0.5 C 203.167,-0.5 204.833,-0.5 206.5,-0.5C 206.818,4.03225 206.485,8.36559 205.5,12.5C 204.5,12.5 203.5,12.5 202.5,12.5C 201.432,11.5655 200.099,11.2322 198.5,11.5C 199.263,10.7321 200.263,10.2321 201.5,10C 199.388,9.09428 198.555,7.59428 199,5.5C 200.813,6.60905 201.646,5.94238 201.5,3.5C 200.325,3.71901 199.325,3.38568 198.5,2.5C 199.993,1.85892 200.993,0.85892 201.5,-0.5 Z"/></g>
<g><path style="opacity:1" fill="#1c1914" d="M 220.5,-0.5 C 222.833,-0.5 225.167,-0.5 227.5,-0.5C 227.5,3.5 227.5,7.5 227.5,11.5C 227.665,15.1817 227.499,18.8484 227,22.5C 225.06,19.819 222.893,17.4857 220.5,15.5C 220.5,10.1667 220.5,4.83333 220.5,-0.5 Z"/></g>
<g><path style="opacity:1" fill="#a89c84" d="M 227.5,-0.5 C 229.5,-0.5 231.5,-0.5 233.5,-0.5C 233.5,1.83333 233.5,4.16667 233.5,6.5C 232.094,8.47359 230.594,10.4736 229,12.5C 228.617,11.944 228.117,11.6107 227.5,11.5C 227.5,7.5 227.5,3.5 227.5,-0.5 Z"/></g>
<g><path style="opacity:1" fill="#2f4f3f" d="M -0.5,-0.5 C 10.1667,-0.5 20.8333,-0.5 31.5,-0.5C 31.7035,1.39037 31.0368,2.89037 29.5,4C 32.2056,3.95947 34.8723,3.45947 37.5,2.5C 37.5,4.5 37.5,6.5 37.5,8.5C 37.5394,9.58317 37.8728,10.5832 38.5,11.5C 37.7579,12.2868 36.9246,12.9535 36,13.5C 28.9777,8.73789 26.1443,10.7379 27.5,19.5C 28.8734,19.3433 30.2068,19.51 31.5,20C 28.6287,20.1177 25.962,20.7844 23.5,22C 25.5,22.3333 27.5,22.6667 29.5,23C 29,23.5 28.5,24 28,24.5C 28.9962,28.8832 28.6629,33.2165 27,37.5C 25.5993,39.1922 23.7659,39.8588 21.5,39.5C 21.6882,37.8967 21.1882,36.5634 20,35.5C 19.2797,37.1124 19.4464,38.6124 20.5,40C 19.8333,40.3333 19.1667,40.6667 18.5,41C 18.8333,42.6667 19.1667,44.3333 19.5,46C 17.444,46.3108 15.444,46.8108 13.5,47.5C 12.8333,45.5 12.1667,43.5 11.5,41.5C 11.42,45.7132 10.7533,50.0466 9.5,54.5C 8.70286,50.1577 7.86953,45.8244 7,41.5C 6.0514,45.3779 4.88473,45.3779 3.5,41.5C 2.57131,42.6888 2.23798,44.0222 2.5,45.5C 0.9724,46.8021 -0.0275999,48.4687 -0.5,50.5C -0.5,33.5 -0.5,16.5 -0.5,-0.5 Z"/></g>
<g><path style="opacity:1" fill="#786c59" d="M 244.5,-0.5 C 244.833,-0.5 245.167,-0.5 245.5,-0.5C 245.5,10.1667 245.5,20.8333 245.5,31.5C 249.5,31.8333 249.5,32.1667 245.5,32.5C 245.5,33.8333 245.5,35.1667 245.5,36.5C 247.099,36.7678 248.432,36.4345 249.5,35.5C 251.5,35.5 253.5,35.5 255.5,35.5C 255.5,38.1667 255.5,40.8333 255.5,43.5C 252.916,42.9517 251.916,41.285 252.5,38.5C 248.143,38.5865 243.81,38.9198 239.5,39.5C 238.833,39.5 238.5,39.1667 238.5,38.5C 240.728,38.2231 242.395,37.2231 243.5,35.5C 244.49,29.3554 244.823,23.0221 244.5,16.5C 244.664,13.8127 244.497,11.146 244,8.5C 242.63,17.5423 241.797,17.209 241.5,7.5C 242.5,7.5 243.5,7.5 244.5,7.5C 244.5,4.83333 244.5,2.16667 244.5,-0.5 Z"/></g>
<g><path style="opacity:1" fill="#9e9991" d="M 153.5,-0.5 C 154.5,-0.5 155.5,-0.5 156.5,-0.5C 156.5,3.16667 156.5,6.83333 156.5,10.5C 161.167,10.5 165.833,10.5 170.5,10.5C 170.5,6.83333 170.5,3.16667 170.5,-0.5C 173.167,-0.5 175.833,-0.5 178.5,-0.5C 178.5,3.16667 178.5,6.83333 178.5,10.5C 180.5,10.5 182.5,10.5 184.5,10.5C 186.167,10.5 187.833,10.5 189.5,10.5C 189.5,6.83333 189.5,3.16667 189.5,-0.5C 192.167,-0.5 194.833,-0.5 197.5,-0.5C 197.183,3.70159 197.517,7.70159 198.5,11.5C 200.099,11.2322 201.432,11.5655 202.5,12.5C 193.71,10.9 186.044,12.9 179.5,18.5C 179.5,18.1667 179.5,17.8333 179.5,17.5C 180.716,15.5491 182.382,14.0491 184.5,13C 177.087,12.2036 169.754,12.3703 162.5,13.5C 159.877,11.7345 156.877,11.0679 153.5,11.5C 153.5,7.5 153.5,3.5 153.5,-0.5 Z"/></g>
<g><path style="opacity:1" fill="#444038" d="M 178.5,-0.5 C 180.5,-0.5 182.5,-0.5 184.5,-0.5C 184.5,3.16667 184.5,6.83333 184.5,10.5C 182.5,10.5 180.5,10.5 178.5,10.5C 178.5,6.83333 178.5,3.16667 178.5,-0.5 Z"/></g>
<g><path style="opacity:1" fill="#17120e" d="M 184.5,-0.5 C 186.167,-0.5 187.833,-0.5 189.5,-0.5C 189.5,3.16667 189.5,6.83333 189.5,10.5C 187.833,10.5 186.167,10.5 184.5,10.5C 184.5,6.83333 184.5,3.16667 184.5,-0.5 Z"/></g>
<g><path style="opacity:1" fill="#6f6b5b" d="M 156.5,-0.5 C 159.5,-0.5 162.5,-0.5 165.5,-0.5C 165.5,2.83333 165.5,6.16667 165.5,9.5C 166.833,9.5 168.167,9.5 169.5,9.5C 169.5,6.16667 169.5,2.83333 169.5,-0.5C 169.833,-0.5 170.167,-0.5 170.5,-0.5C 170.5,3.16667 170.5,6.83333 170.5,10.5C 165.833,10.5 161.167,10.5 156.5,10.5C 156.5,6.83333 156.5,3.16667 156.5,-0.5 Z"/></g>
<g><path style="opacity:1" fill="#1e160e" d="M 165.5,-0.5 C 166.833,-0.5 168.167,-0.5 169.5,-0.5C 169.5,2.83333 169.5,6.16667 169.5,9.5C 168.167,9.5 166.833,9.5 165.5,9.5C 165.5,6.16667 165.5,2.83333 165.5,-0.5 Z"/></g>
<g><path style="opacity:1" fill="#355443" d="M 31.5,-0.5 C 43.8333,-0.5 56.1667,-0.5 68.5,-0.5C 68.1694,6.86348 68.5027,14.1968 69.5,21.5C 70.1067,21.3764 70.44,21.0431 70.5,20.5C 71.4511,21.9187 71.7845,23.5853 71.5,25.5C 70.8423,24.6016 70.1757,23.6016 69.5,22.5C 69.1667,22.8333 68.8333,23.1667 68.5,23.5C 69.4544,29.1045 69.7877,34.7711 69.5,40.5C 68.8333,41.8333 67.8333,42.8333 66.5,43.5C 65.9951,34.6997 64.9951,25.6997 63.5,16.5C 60.2893,16.012 57.456,16.6787 55,18.5C 54.6827,16.6992 54.016,16.3659 53,17.5C 52.8333,19.8333 52.6667,22.1667 52.5,24.5C 52.5738,27.2875 53.2405,29.7875 54.5,32C 52.185,34.8069 49.5183,35.9735 46.5,35.5C 45.4104,36.3914 45.4104,37.3914 46.5,38.5C 45.675,39.3857 44.675,39.719 43.5,39.5C 43.1419,51.4288 42.1419,51.4288 40.5,39.5C 38.2155,40.416 37.0488,39.416 37,36.5C 34.3684,38.5147 34.2017,40.5147 36.5,42.5C 35.6906,44.0709 35.3573,45.7376 35.5,47.5C 28.9137,48.0252 28.247,50.0252 33.5,53.5C 29.9932,56.7672 28.9932,60.6005 30.5,65C 28.0989,65.805 28.2656,66.6383 31,67.5C 31.1922,65.4233 31.6922,63.4233 32.5,61.5C 32.2964,62.5294 32.7964,63.5294 34,64.5C 34.8373,62.9926 36.0039,62.4926 37.5,63C 36.6634,64.0113 36.33,65.1779 36.5,66.5C 33.322,67.3439 30.6554,69.0105 28.5,71.5C 27.2493,69.7801 25.7493,69.4468 24,70.5C 23.4604,68.8654 23.9604,67.5321 25.5,66.5C 25.0814,65.3279 24.4147,64.3279 23.5,63.5C 21.2062,62.2943 18.8728,61.2943 16.5,60.5C 16.3178,55.2063 15.8178,55.2063 15,60.5C 11.9834,62.0206 10.15,61.0206 9.5,57.5C 8.57451,58.6405 7.74117,58.6405 7,57.5C 6.50776,58.549 6.67443,59.549 7.5,60.5C 6.75792,61.2868 5.92458,61.9535 5,62.5C 0.696816,60.3825 0.530149,58.2158 4.5,56C 4.16667,55.6667 3.83333,55.3333 3.5,55C 7.56902,51.1252 7.23569,47.9585 2.5,45.5C 2.23798,44.0222 2.57131,42.6888 3.5,41.5C 4.88473,45.3779 6.0514,45.3779 7,41.5C 7.86953,45.8244 8.70286,50.1577 9.5,54.5C 10.7533,50.0466 11.42,45.7132 11.5,41.5C 12.1667,43.5 12.8333,45.5 13.5,47.5C 15.444,46.8108 17.444,46.3108 19.5,46C 19.1667,44.3333 18.8333,42.6667 18.5,41C 19.1667,40.6667 19.8333,40.3333 20.5,40C 19.4464,38.6124 19.2797,37.1124 20,35.5C 21.1882,36.5634 21.6882,37.8967 21.5,39.5C 23.7659,39.8588 25.5993,39.1922 27,37.5C 28.6629,33.2165 28.9962,28.8832 28,24.5C 28.5,24 29,23.5 29.5,23C 27.5,22.6667 25.5,22.3333 23.5,22C 25.962,20.7844 28.6287,20.1177 31.5,20C 30.2068,19.51 28.8734,19.3433 27.5,19.5C 26.1443,10.7379 28.9777,8.73789 36,13.5C 36.9246,12.9535 37.7579,12.2868 38.5,11.5C 37.8728,10.5832 37.5394,9.58317 37.5,8.5C 41.0641,9.42266 44.7307,9.75599 48.5,9.5C 48.5,7.16667 48.5,4.83333 48.5,2.5C 44.8333,2.5 41.1667,2.5 37.5,2.5C 34.8723,3.45947 32.2056,3.95947 29.5,4C 31.0368,2.89037 31.7035,1.39037 31.5,-0.5 Z"/></g>
<g><path style="opacity:1" fill="#abb5b9" d="M 162.5,13.5 C 169.754,12.3703 177.087,12.2036 184.5,13C 182.382,14.0491 180.716,15.5491 179.5,17.5C 176.81,19.0647 173.81,19.7313 170.5,19.5C 156.178,18.5339 141.845,17.8672 127.5,17.5C 137.366,16.6994 147.199,15.0327 157,12.5C 158.766,13.2335 160.599,13.5668 162.5,13.5 Z"/></g>
<g><path style="opacity:1" fill="#151e17" d="M 68.5,-0.5 C 69.1667,-0.5 69.8333,-0.5 70.5,-0.5C 70.5,6.5 70.5,13.5 70.5,20.5C 70.44,21.0431 70.1067,21.3764 69.5,21.5C 68.5027,14.1968 68.1694,6.86348 68.5,-0.5 Z"/></g>
<g><path style="opacity:1" fill="#899590" d="M 153.5,11.5 C 156.877,11.0679 159.877,11.7345 162.5,13.5C 160.599,13.5668 158.766,13.2335 157,12.5C 147.199,15.0327 137.366,16.6994 127.5,17.5C 123.958,17.1872 120.625,17.5206 117.5,18.5C 111.833,18.5 106.167,18.5 100.5,18.5C 100.5,18.1667 100.5,17.8333 100.5,17.5C 102.22,16.1359 104.22,15.1359 106.5,14.5C 107.484,11.5719 107.817,8.57186 107.5,5.5C 109.833,5.5 112.167,5.5 114.5,5.5C 114.5,7.83333 114.5,10.1667 114.5,12.5C 127.497,12.0716 140.497,11.7383 153.5,11.5 Z"/></g>
<g><path style="opacity:1" fill="#b9bab7" d="M 233.5,6.5 C 233.5,14.8333 233.5,23.1667 233.5,31.5C 233.167,31.5 232.833,31.5 232.5,31.5C 230.682,28.5753 228.349,26.0753 225.5,24C 224.563,23.3083 223.897,23.475 223.5,24.5C 222.833,24.5 222.5,24.8333 222.5,25.5C 218.56,21.53 213.894,19.1967 208.5,18.5C 203.521,17.3663 197.188,17.1997 189.5,18C 197.598,16.1867 205.765,16.0201 214,17.5C 214.5,17.3333 215,17.1667 215.5,17C 214.584,16.7216 213.918,16.2216 213.5,15.5C 215.833,15.5 218.167,15.5 220.5,15.5C 222.893,17.4857 225.06,19.819 227,22.5C 227.499,18.8484 227.665,15.1817 227.5,11.5C 228.117,11.6107 228.617,11.944 229,12.5C 230.594,10.4736 232.094,8.47359 233.5,6.5 Z"/></g>
<g><path style="opacity:1" fill="#abbcb7" d="M 100.5,17.5 C 100.5,17.8333 100.5,18.1667 100.5,18.5C 94.6579,22.2541 88.9913,26.2541 83.5,30.5C 83.0618,30.5654 82.7284,30.3988 82.5,30C 88.0348,25.074 94.0348,20.9073 100.5,17.5 Z"/></g>
<g><path style="opacity:1" fill="#a69c87" d="M 239.5,-0.5 C 241.167,-0.5 242.833,-0.5 244.5,-0.5C 244.5,2.16667 244.5,4.83333 244.5,7.5C 243.5,7.5 242.5,7.5 241.5,7.5C 241.797,17.209 242.63,17.5423 244,8.5C 244.497,11.146 244.664,13.8127 244.5,16.5C 243.686,18.631 243.186,20.9644 243,23.5C 241.855,22.3157 240.688,22.3157 239.5,23.5C 239.5,15.5 239.5,7.5 239.5,-0.5 Z"/></g>
<g><path style="opacity:1" fill="#887e69" d="M 251.5,-0.5 C 252.833,-0.5 254.167,-0.5 255.5,-0.5C 255.5,8.83333 255.5,18.1667 255.5,27.5C 254.414,27.38 253.747,26.7133 253.5,25.5C 251.705,16.94 251.038,8.27335 251.5,-0.5 Z"/></g>
<g><path style="opacity:1" fill="#2b301e" d="M 208.5,18.5 C 213.894,19.1967 218.56,21.53 222.5,25.5C 223.514,28.5688 224.348,31.5688 225,34.5C 224.667,33.8333 224.333,33.1667 224,32.5C 222.644,33.3802 221.144,33.7135 219.5,33.5C 219.5,34.8333 219.5,36.1667 219.5,37.5C 220.5,37.5 221.5,37.5 222.5,37.5C 222.5,39.1667 222.5,40.8333 222.5,42.5C 222.167,42.5 221.833,42.5 221.5,42.5C 221.5,41.5 221.5,40.5 221.5,39.5C 220.167,39.5 218.833,39.5 217.5,39.5C 217.769,37.5714 217.269,35.9047 216,34.5C 215.692,35.3081 215.192,35.9747 214.5,36.5C 213.264,35.7542 211.93,35.4208 210.5,35.5C 207.69,30.5314 205.357,25.1981 203.5,19.5C 205.045,18.5481 206.712,18.2148 208.5,18.5 Z"/></g>
<g><path style="opacity:1" fill="#0a0a09" d="M 127.5,17.5 C 141.845,17.8672 156.178,18.5339 170.5,19.5C 173.81,19.7313 176.81,19.0647 179.5,17.5C 179.5,17.8333 179.5,18.1667 179.5,18.5C 172.729,30.3776 166.729,42.7109 161.5,55.5C 160.675,56.3857 159.675,56.719 158.5,56.5C 147.5,56.5 136.5,56.5 125.5,56.5C 135.325,55.6698 145.325,55.1698 155.5,55C 154.167,54.3333 152.833,53.6667 151.5,53C 140.652,52.2744 129.818,52.441 119,53.5C 111.746,51.2659 104.246,50.2659 96.5,50.5C 96.3433,49.1266 96.51,47.7932 97,46.5C 101.456,38.0865 106.456,30.0865 112,22.5C 113.98,21.2509 115.813,19.9176 117.5,18.5C 120.625,17.5206 123.958,17.1872 127.5,17.5 Z"/></g>
<g><path style="opacity:1" fill="#bebab5" d="M 244.5,16.5 C 244.823,23.0221 244.49,29.3554 243.5,35.5C 240.537,35.8493 238.204,34.8493 236.5,32.5C 238.959,30.0733 239.959,27.0733 239.5,23.5C 240.688,22.3157 241.855,22.3157 243,23.5C 243.186,20.9644 243.686,18.631 244.5,16.5 Z"/></g>
<g><path style="opacity:1" fill="#1c1812" d="M 245.5,-0.5 C 246.833,-0.5 248.167,-0.5 249.5,-0.5C 249.5,11.5 249.5,23.5 249.5,35.5C 248.432,36.4345 247.099,36.7678 245.5,36.5C 245.5,35.1667 245.5,33.8333 245.5,32.5C 249.5,32.1667 249.5,31.8333 245.5,31.5C 245.5,20.8333 245.5,10.1667 245.5,-0.5 Z"/></g>
<g><path style="opacity:1" fill="#9f9689" d="M 249.5,-0.5 C 250.167,-0.5 250.833,-0.5 251.5,-0.5C 251.038,8.27335 251.705,16.94 253.5,25.5C 253.747,26.7133 254.414,27.38 255.5,27.5C 255.5,30.1667 255.5,32.8333 255.5,35.5C 253.5,35.5 251.5,35.5 249.5,35.5C 249.5,23.5 249.5,11.5 249.5,-0.5 Z"/></g>
<g><path style="opacity:1" fill="#0b1610" d="M 71.5,25.5 C 71.2552,30.0565 71.2552,34.3898 71.5,38.5C 71.1667,39.5 70.5,40.1667 69.5,40.5C 69.7877,34.7711 69.4544,29.1045 68.5,23.5C 68.8333,23.1667 69.1667,22.8333 69.5,22.5C 70.1757,23.6016 70.8423,24.6016 71.5,25.5 Z"/></g>
<g><path style="opacity:1" fill="#877a34" d="M 221.5,42.5 C 221.158,43.3382 220.492,43.6716 219.5,43.5C 217.173,43.7529 215.173,43.0863 213.5,41.5C 214.025,40.8076 214.692,40.3076 215.5,40C 213.866,39.5065 212.199,39.3398 210.5,39.5C 209.314,38.0387 209.314,36.7054 210.5,35.5C 211.93,35.4208 213.264,35.7542 214.5,36.5C 215.192,35.9747 215.692,35.3081 216,34.5C 217.269,35.9047 217.769,37.5714 217.5,39.5C 218.833,39.5 220.167,39.5 221.5,39.5C 221.5,40.5 221.5,41.5 221.5,42.5 Z"/></g>
<g><path style="opacity:1" fill="#3c5b4b" d="M 66.5,43.5 C 63.7606,46.2327 61.4273,49.2327 59.5,52.5C 59.1667,52.5 58.8333,52.5 58.5,52.5C 58.5654,52.0618 58.3988,51.7284 58,51.5C 50.9257,56.6215 43.759,61.6215 36.5,66.5C 36.33,65.1779 36.6634,64.0113 37.5,63C 36.0039,62.4926 34.8373,62.9926 34,64.5C 32.7964,63.5294 32.2964,62.5294 32.5,61.5C 31.6922,63.4233 31.1922,65.4233 31,67.5C 28.2656,66.6383 28.0989,65.805 30.5,65C 28.9932,60.6005 29.9932,56.7672 33.5,53.5C 28.247,50.0252 28.9137,48.0252 35.5,47.5C 35.3573,45.7376 35.6906,44.0709 36.5,42.5C 34.2017,40.5147 34.3684,38.5147 37,36.5C 37.0488,39.416 38.2155,40.416 40.5,39.5C 42.1419,51.4288 43.1419,51.4288 43.5,39.5C 44.675,39.719 45.675,39.3857 46.5,38.5C 45.4104,37.3914 45.4104,36.3914 46.5,35.5C 49.5183,35.9735 52.185,34.8069 54.5,32C 53.2405,29.7875 52.5738,27.2875 52.5,24.5C 52.6667,22.1667 52.8333,19.8333 53,17.5C 54.016,16.3659 54.6827,16.6992 55,18.5C 57.456,16.6787 60.2893,16.012 63.5,16.5C 64.9951,25.6997 65.9951,34.6997 66.5,43.5 Z"/></g>
<g><path style="opacity:1" fill="#5c6061" d="M 228.5,39.5 C 228.489,41.0174 227.823,42.1841 226.5,43C 218.1,47.5189 209.433,51.3522 200.5,54.5C 199.662,54.1583 199.328,53.4916 199.5,52.5C 201.05,51.5592 202.716,50.8925 204.5,50.5C 205.906,50.0269 206.573,49.0269 206.5,47.5C 207.222,47.9175 207.722,48.5842 208,49.5C 209.729,49.0257 210.895,48.0257 211.5,46.5C 214.397,45.871 217.064,44.871 219.5,43.5C 220.492,43.6716 221.158,43.3382 221.5,42.5C 221.833,42.5 222.167,42.5 222.5,42.5C 223.833,41.0665 225.333,39.7332 227,38.5C 227.383,39.056 227.883,39.3893 228.5,39.5 Z"/></g>
<g><path style="opacity:1" fill="#3b3f3b" d="M 223.5,24.5 C 229.359,28.1266 231.026,33.1266 228.5,39.5C 227.883,39.3893 227.383,39.056 227,38.5C 225.333,39.7332 223.833,41.0665 222.5,42.5C 222.5,40.8333 222.5,39.1667 222.5,37.5C 221.5,37.5 220.5,37.5 219.5,37.5C 219.5,36.1667 219.5,34.8333 219.5,33.5C 221.144,33.7135 222.644,33.3802 224,32.5C 224.333,33.1667 224.667,33.8333 225,34.5C 224.348,31.5688 223.514,28.5688 222.5,25.5C 222.5,24.8333 222.833,24.5 223.5,24.5 Z"/></g>
<g><path style="opacity:1" fill="#2f3113" d="M 210.5,39.5 C 212.199,39.3398 213.866,39.5065 215.5,40C 214.692,40.3076 214.025,40.8076 213.5,41.5C 215.173,43.0863 217.173,43.7529 219.5,43.5C 217.064,44.871 214.397,45.871 211.5,46.5C 211.326,44.139 210.993,41.8056 210.5,39.5 Z"/></g>
<g><path style="opacity:1" fill="#8d857c" d="M 242.5,44.5 C 242.167,43.8333 241.833,43.1667 241.5,42.5C 243.55,42.0388 245.55,41.3721 247.5,40.5C 248.282,42.3293 247.616,43.8293 245.5,45C 244.423,45.4696 243.423,45.3029 242.5,44.5 Z"/></g>
<g><path style="opacity:1" fill="#bdc8c2" d="M 71.5,38.5 C 72.4916,38.3284 73.1583,38.6618 73.5,39.5C 68.8333,43.8333 64.1667,48.1667 59.5,52.5C 61.4273,49.2327 63.7606,46.2327 66.5,43.5C 67.8333,42.8333 68.8333,41.8333 69.5,40.5C 70.5,40.1667 71.1667,39.5 71.5,38.5 Z"/></g>
<g><path style="opacity:1" fill="#1e1a13" d="M 178.5,41.5 C 179.5,41.5 180.5,41.5 181.5,41.5C 182.23,43.045 183.563,43.8784 185.5,44C 183.899,44.2734 182.399,44.7734 181,45.5C 180.312,46.3317 180.479,46.9984 181.5,47.5C 182.429,46.4502 183.095,46.4502 183.5,47.5C 182.5,49.1667 181.167,50.5 179.5,51.5C 177.866,48.3205 177.533,44.9872 178.5,41.5 Z"/></g>
<g><path style="opacity:1" fill="#141613" d="M 100.5,18.5 C 106.167,18.5 111.833,18.5 117.5,18.5C 115.813,19.9176 113.98,21.2509 112,22.5C 106.456,30.0865 101.456,38.0865 97,46.5C 96.51,47.7932 96.3433,49.1266 96.5,50.5C 104.246,50.2659 111.746,51.2659 119,53.5C 129.818,52.441 140.652,52.2744 151.5,53C 152.833,53.6667 154.167,54.3333 155.5,55C 145.325,55.1698 135.325,55.6698 125.5,56.5C 119.167,56.5 112.833,56.5 106.5,56.5C 99.6866,55.5088 92.6866,55.1755 85.5,55.5C 79.69,54.5104 73.69,54.1771 67.5,54.5C 64.5,53.8333 61.5,53.1667 58.5,52.5C 58.8333,52.5 59.1667,52.5 59.5,52.5C 64.1667,48.1667 68.8333,43.8333 73.5,39.5C 76.859,36.4715 80.1924,33.4715 83.5,30.5C 88.9913,26.2541 94.6579,22.2541 100.5,18.5 Z"/></g>
<g><path style="opacity:1" fill="#3c3712" d="M 205.5,39.5 C 205.5,39.8333 205.5,40.1667 205.5,40.5C 205.244,42.9372 204.577,45.2706 203.5,47.5C 203.833,47.8333 204.167,48.1667 204.5,48.5C 205.172,47.0508 205.839,45.7175 206.5,44.5C 206.5,45.5 206.5,46.5 206.5,47.5C 206.573,49.0269 205.906,50.0269 204.5,50.5C 203.602,49.8423 202.602,49.1757 201.5,48.5C 203.009,46.38 202.676,44.7133 200.5,43.5C 201.568,42.5655 202.901,42.2322 204.5,42.5C 204.263,41.209 204.596,40.209 205.5,39.5 Z"/></g>
<g><path style="opacity:1" fill="#181710" d="M 199.5,43.5 C 199.833,43.5 200.167,43.5 200.5,43.5C 202.676,44.7133 203.009,46.38 201.5,48.5C 202.602,49.1757 203.602,49.8423 204.5,50.5C 202.716,50.8925 201.05,51.5592 199.5,52.5C 197.949,49.5982 195.615,47.9315 192.5,47.5C 195.89,47.8851 198.223,46.5517 199.5,43.5 Z"/></g>
<g><path style="opacity:1" fill="#44454a" d="M 176.5,38.5 C 176.932,39.7095 177.599,40.7095 178.5,41.5C 177.533,44.9872 177.866,48.3205 179.5,51.5C 178.659,53.3792 178.325,55.3792 178.5,57.5C 177.71,56.3915 177.21,55.0581 177,53.5C 176.667,54.1667 176.333,54.8333 176,55.5C 174.192,53.4418 172.025,53.1084 169.5,54.5C 171.082,48.7237 173.415,43.3904 176.5,38.5 Z"/></g>
<g><path style="opacity:1" fill="#aa7071" d="M 245.5,54.5 C 245.5,55.1667 245.5,55.8333 245.5,56.5C 244.388,54.4006 243.721,52.0673 243.5,49.5C 243.281,48.325 243.614,47.325 244.5,46.5C 245.48,49.0865 245.813,51.7531 245.5,54.5 Z"/></g>
<g><path style="opacity:1" fill="#c9cac2" d="M 183.5,47.5 C 185.5,47.5 187.5,47.5 189.5,47.5C 190.5,47.5 191.5,47.5 192.5,47.5C 195.615,47.9315 197.949,49.5982 199.5,52.5C 199.328,53.4916 199.662,54.1583 200.5,54.5C 200.047,56.5652 199.047,58.2318 197.5,59.5C 197.083,58.8761 196.416,58.5427 195.5,58.5C 190.265,59.9705 184.932,60.6372 179.5,60.5C 179.737,59.209 179.404,58.209 178.5,57.5C 178.325,55.3792 178.659,53.3792 179.5,51.5C 181.167,50.5 182.5,49.1667 183.5,47.5 Z"/></g>
<g><path style="opacity:1" fill="#55565b" d="M 255.5,52.5 C 255.5,54.5 255.5,56.5 255.5,58.5C 250.638,56.1914 250.638,54.1914 255.5,52.5 Z"/></g>
<g><path style="opacity:1" fill="#d1d3cd" d="M 232.5,31.5 C 232.833,31.5 233.167,31.5 233.5,31.5C 234.934,34.0472 236.6,36.3805 238.5,38.5C 238.5,39.1667 238.833,39.5 239.5,39.5C 239.782,40.7777 240.449,41.7777 241.5,42.5C 241.833,43.1667 242.167,43.8333 242.5,44.5C 242.216,46.4147 242.549,48.0813 243.5,49.5C 243.721,52.0673 244.388,54.4006 245.5,56.5C 246.394,62.1965 247.394,67.8632 248.5,73.5C 249.105,78.4115 249.105,83.4115 248.5,88.5C 248.167,88.5 247.833,88.5 247.5,88.5C 247.832,82.9775 246.832,77.8109 244.5,73C 243.101,72.4054 241.768,72.5721 240.5,73.5C 238.322,75.8584 236.655,78.5251 235.5,81.5C 235.439,79.5608 235.439,77.5608 235.5,75.5C 231.913,77.9205 228.58,77.4205 225.5,74C 223.765,73.3486 222.098,73.5153 220.5,74.5C 218.562,71.9211 216.729,71.9211 215,74.5C 212.606,73.8641 210.106,73.8641 207.5,74.5C 207.5,75.8333 207.5,77.1667 207.5,78.5C 202.172,79.6787 196.838,79.6787 191.5,78.5C 194.003,77.0357 196.67,75.869 199.5,75C 201.333,72.8333 203.167,70.6667 205,68.5C 207.79,70.8311 210.624,70.6645 213.5,68C 214.696,67.3457 214.696,66.8457 213.5,66.5C 211.587,67.373 209.753,68.373 208,69.5C 207.55,66.9362 208.716,65.4362 211.5,65C 211.167,64.6667 210.833,64.3333 210.5,64C 217.959,63.605 218.292,62.105 211.5,59.5C 205.833,63.3333 200.167,67.1667 194.5,71C 192.536,71.624 190.869,71.124 189.5,69.5C 183.616,70.7597 179.949,74.2597 178.5,80C 176.182,81.9927 173.516,83.1594 170.5,83.5C 170.415,85.9288 169.415,87.9288 167.5,89.5C 171.179,90.5048 173.846,93.1715 175.5,97.5C 175.376,98.1067 175.043,98.44 174.5,98.5C 170.928,91.1467 165.595,89.6467 158.5,94C 152.866,99.7683 149.199,106.602 147.5,114.5C 146.662,114.842 146.328,115.508 146.5,116.5C 145.819,114.842 144.985,113.175 144,111.5C 143.624,115.442 141.458,117.109 137.5,116.5C 137.509,118.308 137.009,119.975 136,121.5C 134.415,116.249 133.082,110.915 132,105.5C 131.302,104.309 130.469,103.309 129.5,102.5C 133.805,100.908 137.805,98.7413 141.5,96C 143.9,95.8142 146.234,95.3142 148.5,94.5C 151.807,90.4393 154.807,85.9393 157.5,81C 164.725,79.0557 171.058,75.5557 176.5,70.5C 175.32,67.919 174.32,68.0857 173.5,71C 168.945,71.1295 168.611,70.1295 172.5,68C 171.906,67.5357 171.239,67.369 170.5,67.5C 174.418,66.168 178.418,64.8346 182.5,63.5C 183.568,64.4345 184.901,64.7678 186.5,64.5C 186.5,65.5 186.5,66.5 186.5,67.5C 192.857,67.198 198.857,65.698 204.5,63C 202.561,62.0922 201.561,60.5922 201.5,58.5C 205.794,57.8179 210.127,57.6513 214.5,58C 220.386,54.6513 225.553,50.4846 230,45.5C 230.333,45.8333 230.667,46.1667 231,46.5C 231.174,41.3165 231.674,36.3165 232.5,31.5 Z"/></g>
<g><path style="opacity:1" fill="#2d4b40" d="M 2.5,45.5 C 7.23569,47.9585 7.56902,51.1252 3.5,55C 3.83333,55.3333 4.16667,55.6667 4.5,56C 0.530149,58.2158 0.696816,60.3825 5,62.5C 5.92458,61.9535 6.75792,61.2868 7.5,60.5C 6.67443,59.549 6.50776,58.549 7,57.5C 7.74117,58.6405 8.57451,58.6405 9.5,57.5C 10.15,61.0206 11.9834,62.0206 15,60.5C 15.8178,55.2063 16.3178,55.2063 16.5,60.5C 18.8728,61.2943 21.2062,62.2943 23.5,63.5C 24.4147,64.3279 25.0814,65.3279 25.5,66.5C 23.9604,67.5321 23.4604,68.8654 24,70.5C 25.7493,69.4468 27.2493,69.7801 28.5,71.5C 27.6618,71.8417 27.3284,72.5084 27.5,73.5C 26.0599,75.3882 24.3932,76.0549 22.5,75.5C 21.5258,77.7427 21.1924,80.076 21.5,82.5C 18.8643,85.3002 16.0309,87.9668 13,90.5C 12.5007,95.4889 12.3341,100.489 12.5,105.5C 12.5313,108.959 13.198,112.292 14.5,115.5C 14.3764,116.107 14.0431,116.44 13.5,116.5C 13.1667,116.5 12.8333,116.5 12.5,116.5C 8.18549,115.976 3.85215,116.643 -0.5,118.5C -0.5,95.8333 -0.5,73.1667 -0.5,50.5C -0.0275999,48.4687 0.9724,46.8021 2.5,45.5 Z"/></g>
<g><path style="opacity:1" fill="#252425" d="M 178.5,57.5 C 179.404,58.209 179.737,59.209 179.5,60.5C 184.932,60.6372 190.265,59.9705 195.5,58.5C 196.416,58.5427 197.083,58.8761 197.5,59.5C 192.457,60.6775 187.457,62.0108 182.5,63.5C 178.418,64.8346 174.418,66.168 170.5,67.5C 169.292,68.2341 167.959,68.5674 166.5,68.5C 166.266,63.5433 167.266,58.8766 169.5,54.5C 172.025,53.1084 174.192,53.4418 176,55.5C 176.333,54.8333 176.667,54.1667 177,53.5C 177.21,55.0581 177.71,56.3915 178.5,57.5 Z"/></g>
<g><path style="opacity:1" fill="#dae1df" d="M 223.5,24.5 C 223.897,23.475 224.563,23.3083 225.5,24C 228.349,26.0753 230.682,28.5753 232.5,31.5C 231.674,36.3165 231.174,41.3165 231,46.5C 230.667,46.1667 230.333,45.8333 230,45.5C 225.553,50.4846 220.386,54.6513 214.5,58C 210.127,57.6513 205.794,57.8179 201.5,58.5C 201.561,60.5922 202.561,62.0922 204.5,63C 198.857,65.698 192.857,67.198 186.5,67.5C 186.5,66.5 186.5,65.5 186.5,64.5C 184.901,64.7678 183.568,64.4345 182.5,63.5C 187.457,62.0108 192.457,60.6775 197.5,59.5C 199.047,58.2318 200.047,56.5652 200.5,54.5C 209.433,51.3522 218.1,47.5189 226.5,43C 227.823,42.1841 228.489,41.0174 228.5,39.5C 231.026,33.1266 229.359,28.1266 223.5,24.5 Z"/></g>
<g><path style="opacity:1" fill="#49413d" d="M 255.5,43.5 C 255.5,44.1667 255.5,44.8333 255.5,45.5C 254.417,45.5394 253.417,45.8728 252.5,46.5C 251.338,49.4937 249.671,52.1604 247.5,54.5C 249.143,57.8142 251.143,60.8142 253.5,63.5C 252.372,64.2621 251.205,64.9288 250,65.5C 249.383,64.5509 249.549,63.7175 250.5,63C 248.519,62.3946 248.185,61.3946 249.5,60C 248.023,58.1879 246.69,56.3545 245.5,54.5C 245.813,51.7531 245.48,49.0865 244.5,46.5C 243.614,47.325 243.281,48.325 243.5,49.5C 242.549,48.0813 242.216,46.4147 242.5,44.5C 243.423,45.3029 244.423,45.4696 245.5,45C 247.616,43.8293 248.282,42.3293 247.5,40.5C 245.55,41.3721 243.55,42.0388 241.5,42.5C 240.449,41.7777 239.782,40.7777 239.5,39.5C 243.81,38.9198 248.143,38.5865 252.5,38.5C 251.916,41.285 252.916,42.9517 255.5,43.5 Z"/></g>
<g><path style="opacity:1" fill="#1a1919" d="M 255.5,45.5 C 255.5,47.8333 255.5,50.1667 255.5,52.5C 250.638,54.1914 250.638,56.1914 255.5,58.5C 255.5,65.1667 255.5,71.8333 255.5,78.5C 253.533,76.6961 251.699,74.6961 250,72.5C 249.617,73.056 249.117,73.3893 248.5,73.5C 247.394,67.8632 246.394,62.1965 245.5,56.5C 245.5,55.8333 245.5,55.1667 245.5,54.5C 246.69,56.3545 248.023,58.1879 249.5,60C 248.185,61.3946 248.519,62.3946 250.5,63C 249.549,63.7175 249.383,64.5509 250,65.5C 251.205,64.9288 252.372,64.2621 253.5,63.5C 251.143,60.8142 249.143,57.8142 247.5,54.5C 249.671,52.1604 251.338,49.4937 252.5,46.5C 253.417,45.8728 254.417,45.5394 255.5,45.5 Z"/></g>
<g><path style="opacity:1" fill="#9fabad" d="M 67.5,54.5 C 73.69,54.1771 79.69,54.5104 85.5,55.5C 87.3988,56.4394 90.7321,56.9394 95.5,57C 93.5,57.3333 91.5,57.6667 89.5,58C 93.2232,59.3651 93.2232,61.0317 89.5,63C 87.9751,64.0086 86.3084,64.5086 84.5,64.5C 84.7035,66.3904 84.0368,67.8904 82.5,69C 78.0043,70.7454 73.3376,71.5787 68.5,71.5C 68.762,72.9778 68.4287,74.3112 67.5,75.5C 62.0084,78.8345 62.675,80.3345 69.5,80C 64.9468,81.9198 60.2801,83.0865 55.5,83.5C 49.5068,83.0006 43.5068,82.5006 37.5,82C 34.4531,81.4842 32.1198,79.9842 30.5,77.5C 31.6751,76.0262 32.6751,74.3596 33.5,72.5C 33.9743,74.8616 34.3076,77.195 34.5,79.5C 35.2508,78.624 35.7508,77.624 36,76.5C 37,76.8333 38,77.1667 39,77.5C 43.5829,73.2392 48.4162,69.4059 53.5,66C 54.4491,65.3828 55.2825,65.5494 56,66.5C 57.4598,63.7902 59.4598,63.1235 62,64.5C 65.2772,59.7753 69.7772,56.942 75.5,56C 70.5,55.6667 65.5,55.3333 60.5,55C 62.8098,54.5034 65.1432,54.3367 67.5,54.5 Z"/></g>
<g><path style="opacity:1" fill="#d5e2e2" d="M 202.5,12.5 C 203.5,12.5 204.5,12.5 205.5,12.5C 207.792,14.2671 210.458,15.2671 213.5,15.5C 213.918,16.2216 214.584,16.7216 215.5,17C 215,17.1667 214.5,17.3333 214,17.5C 205.765,16.0201 197.598,16.1867 189.5,18C 197.188,17.1997 203.521,17.3663 208.5,18.5C 206.712,18.2148 205.045,18.5481 203.5,19.5C 205.357,25.1981 207.69,30.5314 210.5,35.5C 209.314,36.7054 209.314,38.0387 210.5,39.5C 210.993,41.8056 211.326,44.139 211.5,46.5C 210.895,48.0257 209.729,49.0257 208,49.5C 207.722,48.5842 207.222,47.9175 206.5,47.5C 206.5,46.5 206.5,45.5 206.5,44.5C 206.768,42.901 206.434,41.5676 205.5,40.5C 205.5,40.1667 205.5,39.8333 205.5,39.5C 205.737,38.209 205.404,37.209 204.5,36.5C 203.849,30.5454 202.182,24.8787 199.5,19.5C 197.484,18.3058 195.484,18.3058 193.5,19.5C 189.79,19.8743 186.79,21.541 184.5,24.5C 181.286,28.9359 178.62,33.6026 176.5,38.5C 173.415,43.3904 171.082,48.7237 169.5,54.5C 167.266,58.8766 166.266,63.5433 166.5,68.5C 167.959,68.5674 169.292,68.2341 170.5,67.5C 171.239,67.369 171.906,67.5357 172.5,68C 168.611,70.1295 168.945,71.1295 173.5,71C 174.32,68.0857 175.32,67.919 176.5,70.5C 171.058,75.5557 164.725,79.0557 157.5,81C 154.807,85.9393 151.807,90.4393 148.5,94.5C 146.234,95.3142 143.9,95.8142 141.5,96C 137.805,98.7413 133.805,100.908 129.5,102.5C 129.167,102.5 128.833,102.5 128.5,102.5C 128.389,101.883 128.056,101.383 127.5,101C 129.531,100.368 131.198,99.2012 132.5,97.5C 129.724,96.4852 127.057,95.4852 124.5,94.5C 134.136,93.7031 140.136,88.7031 142.5,79.5C 142.167,78.8333 141.833,78.1667 141.5,77.5C 140.864,79.7946 139.531,81.4613 137.5,82.5C 136.913,81.7666 136.913,80.7666 137.5,79.5C 137.938,79.5654 138.272,79.3988 138.5,79C 136.069,77.9076 136.069,76.7409 138.5,75.5C 141.174,74.5009 141.841,72.8342 140.5,70.5C 141.688,69.6364 142.855,68.6364 144,67.5C 145.507,68.5348 147.007,68.3681 148.5,67C 151.99,64.0887 155.656,61.422 159.5,59C 157.381,58.6582 157.047,57.8249 158.5,56.5C 159.675,56.719 160.675,56.3857 161.5,55.5C 166.729,42.7109 172.729,30.3776 179.5,18.5C 186.044,12.9 193.71,10.9 202.5,12.5 Z"/></g>
<g><path style="opacity:1" fill="#8f8756" d="M 205.5,40.5 C 206.434,41.5676 206.768,42.901 206.5,44.5C 205.839,45.7175 205.172,47.0508 204.5,48.5C 204.167,48.1667 203.833,47.8333 203.5,47.5C 204.577,45.2706 205.244,42.9372 205.5,40.5 Z"/></g>
<g><path style="opacity:1" fill="#46400e" d="M 189.5,43.5 C 190.958,43.5793 192.292,44.0793 193.5,45C 192.833,45.3333 192.167,45.6667 191.5,46C 192.793,46.49 194.127,46.6567 195.5,46.5C 195.5,45.5 195.5,44.5 195.5,43.5C 196.833,43.5 198.167,43.5 199.5,43.5C 198.223,46.5517 195.89,47.8851 192.5,47.5C 191.5,47.5 190.5,47.5 189.5,47.5C 189.5,46.1667 189.5,44.8333 189.5,43.5 Z"/></g>
<g><path style="opacity:1" fill="#a08938" d="M 194.5,31.5 C 196.857,31.3367 199.19,31.5034 201.5,32C 202.688,34.0873 203.688,35.5873 204.5,36.5C 205.404,37.209 205.737,38.209 205.5,39.5C 204.596,40.209 204.263,41.209 204.5,42.5C 202.901,42.2322 201.568,42.5655 200.5,43.5C 200.167,43.5 199.833,43.5 199.5,43.5C 198.167,43.5 196.833,43.5 195.5,43.5C 195.5,44.5 195.5,45.5 195.5,46.5C 194.127,46.6567 192.793,46.49 191.5,46C 192.167,45.6667 192.833,45.3333 193.5,45C 192.292,44.0793 190.958,43.5793 189.5,43.5C 190.141,42.5178 190.807,41.5178 191.5,40.5C 190.471,40.7036 189.471,40.2036 188.5,39C 189.416,38.7216 190.082,38.2216 190.5,37.5C 192.46,38.1383 194.293,38.1383 196,37.5C 196.424,39.6145 197.591,40.4479 199.5,40C 199.043,39.586 198.709,39.086 198.5,38.5C 199.5,37.6667 200.5,36.8333 201.5,36C 199.715,34.8372 197.715,34.1705 195.5,34C 194.748,33.3292 194.414,32.4959 194.5,31.5 Z"/></g>
<g><path style="opacity:1" fill="#97917c" d="M 185.5,35.5 C 188.218,39.5168 186.885,41.5168 181.5,41.5C 182.429,40.6851 183.429,39.8518 184.5,39C 183.027,38.2904 182.36,37.1238 182.5,35.5C 183.5,35.5 184.5,35.5 185.5,35.5 Z"/></g>
<g><path style="opacity:1" fill="#917d3c" d="M 191.5,27.5 C 193.262,28.2623 194.262,29.5956 194.5,31.5C 193.022,31.238 191.689,31.5713 190.5,32.5C 192.167,33.6667 193.833,34.8333 195.5,36C 194.551,36.6172 193.718,36.4506 193,35.5C 192.005,36.0659 191.172,36.7326 190.5,37.5C 190.082,38.2216 189.416,38.7216 188.5,39C 189.471,40.2036 190.471,40.7036 191.5,40.5C 190.807,41.5178 190.141,42.5178 189.5,43.5C 189.5,44.8333 189.5,46.1667 189.5,47.5C 187.5,47.5 185.5,47.5 183.5,47.5C 183.095,46.4502 182.429,46.4502 181.5,47.5C 180.479,46.9984 180.312,46.3317 181,45.5C 182.399,44.7734 183.899,44.2734 185.5,44C 183.563,43.8784 182.23,43.045 181.5,41.5C 186.885,41.5168 188.218,39.5168 185.5,35.5C 186.302,32.0186 188.302,29.3519 191.5,27.5 Z"/></g>
<g><path style="opacity:1" fill="#402f0c" d="M 194.5,31.5 C 194.414,32.4959 194.748,33.3292 195.5,34C 197.715,34.1705 199.715,34.8372 201.5,36C 200.5,36.8333 199.5,37.6667 198.5,38.5C 198.709,39.086 199.043,39.586 199.5,40C 197.591,40.4479 196.424,39.6145 196,37.5C 194.293,38.1383 192.46,38.1383 190.5,37.5C 191.172,36.7326 192.005,36.0659 193,35.5C 193.718,36.4506 194.551,36.6172 195.5,36C 193.833,34.8333 192.167,33.6667 190.5,32.5C 191.689,31.5713 193.022,31.238 194.5,31.5 Z"/></g>
<g><path style="opacity:1" fill="#617791" d="M 193.5,19.5 C 195.228,22.8833 194.561,25.55 191.5,27.5C 188.302,29.3519 186.302,32.0186 185.5,35.5C 184.5,35.5 183.5,35.5 182.5,35.5C 182.36,37.1238 183.027,38.2904 184.5,39C 183.429,39.8518 182.429,40.6851 181.5,41.5C 180.5,41.5 179.5,41.5 178.5,41.5C 177.599,40.7095 176.932,39.7095 176.5,38.5C 178.62,33.6026 181.286,28.9359 184.5,24.5C 186.79,21.541 189.79,19.8743 193.5,19.5 Z"/></g>
<g><path style="opacity:1" fill="#3f4034" d="M 204.5,36.5 C 203.688,35.5873 202.688,34.0873 201.5,32C 199.19,31.5034 196.857,31.3367 194.5,31.5C 194.262,29.5956 193.262,28.2623 191.5,27.5C 194.561,25.55 195.228,22.8833 193.5,19.5C 195.484,18.3058 197.484,18.3058 199.5,19.5C 202.182,24.8787 203.849,30.5454 204.5,36.5 Z"/></g>
<g><path style="opacity:1" fill="#b1bfc6" d="M 85.5,55.5 C 92.6866,55.1755 99.6866,55.5088 106.5,56.5C 104.473,56.3379 102.473,56.5045 100.5,57C 110.537,57.2044 120.537,57.871 130.5,59C 127.456,59.3589 127.122,60.0255 129.5,61C 129.167,61.3333 128.833,61.6667 128.5,62C 130.811,61.8446 133.144,61.8446 135.5,62C 119.98,68.4436 104.647,74.777 89.5,81C 90.1667,80.6667 90.8333,80.3333 91.5,80C 89.8333,79.3333 88.1667,79.3333 86.5,80C 87.1667,80.3333 87.8333,80.6667 88.5,81C 87.1667,81.6667 85.8333,82.3333 84.5,83C 85.448,83.4828 86.448,83.6495 87.5,83.5C 76.9807,84.7486 66.3141,84.7486 55.5,83.5C 60.2801,83.0865 64.9468,81.9198 69.5,80C 62.675,80.3345 62.0084,78.8345 67.5,75.5C 68.4287,74.3112 68.762,72.9778 68.5,71.5C 73.3376,71.5787 78.0043,70.7454 82.5,69C 84.0368,67.8904 84.7035,66.3904 84.5,64.5C 86.3084,64.5086 87.9751,64.0086 89.5,63C 93.2232,61.0317 93.2232,59.3651 89.5,58C 91.5,57.6667 93.5,57.3333 95.5,57C 90.7321,56.9394 87.3988,56.4394 85.5,55.5 Z"/></g>
<g><path style="opacity:1" fill="#83918f" d="M 58.5,52.5 C 61.5,53.1667 64.5,53.8333 67.5,54.5C 65.1432,54.3367 62.8098,54.5034 60.5,55C 65.5,55.3333 70.5,55.6667 75.5,56C 69.7772,56.942 65.2772,59.7753 62,64.5C 59.4598,63.1235 57.4598,63.7902 56,66.5C 55.2825,65.5494 54.4491,65.3828 53.5,66C 48.4162,69.4059 43.5829,73.2392 39,77.5C 38,77.1667 37,76.8333 36,76.5C 35.7508,77.624 35.2508,78.624 34.5,79.5C 34.3076,77.195 33.9743,74.8616 33.5,72.5C 32.6751,74.3596 31.6751,76.0262 30.5,77.5C 29.5,76.8333 28.5,76.1667 27.5,75.5C 27.5,74.8333 27.5,74.1667 27.5,73.5C 27.3284,72.5084 27.6618,71.8417 28.5,71.5C 30.6554,69.0105 33.322,67.3439 36.5,66.5C 43.759,61.6215 50.9257,56.6215 58,51.5C 58.3988,51.7284 58.5654,52.0618 58.5,52.5 Z"/></g>
<g><path style="opacity:1" fill="#c7d6d9" d="M 106.5,56.5 C 112.833,56.5 119.167,56.5 125.5,56.5C 136.5,56.5 147.5,56.5 158.5,56.5C 157.047,57.8249 157.381,58.6582 159.5,59C 155.656,61.422 151.99,64.0887 148.5,67C 147.007,68.3681 145.507,68.5348 144,67.5C 142.855,68.6364 141.688,69.6364 140.5,70.5C 123.784,78.4186 106.117,82.7519 87.5,83.5C 86.448,83.6495 85.448,83.4828 84.5,83C 85.8333,82.3333 87.1667,81.6667 88.5,81C 87.8333,80.6667 87.1667,80.3333 86.5,80C 88.1667,79.3333 89.8333,79.3333 91.5,80C 90.8333,80.3333 90.1667,80.6667 89.5,81C 104.647,74.777 119.98,68.4436 135.5,62C 133.144,61.8446 130.811,61.8446 128.5,62C 128.833,61.6667 129.167,61.3333 129.5,61C 127.122,60.0255 127.456,59.3589 130.5,59C 120.537,57.871 110.537,57.2044 100.5,57C 102.473,56.5045 104.473,56.3379 106.5,56.5 Z"/></g>
<g><path style="opacity:1" fill="#d0cbc1" d="M 235.5,81.5 C 234.018,88.8651 232.352,96.1984 230.5,103.5C 228.073,103.477 225.74,102.977 223.5,102C 229.654,100.132 230.154,97.2988 225,93.5C 210.53,100.652 196.03,107.652 181.5,114.5C 181.167,114.167 180.833,113.833 180.5,113.5C 184.98,110.232 189.314,106.732 193.5,103C 188.348,102.863 183.348,103.697 178.5,105.5C 178.75,110.58 178.25,115.58 177,120.5C 176.517,119.552 176.351,118.552 176.5,117.5C 176.979,110.98 176.312,104.647 174.5,98.5C 175.043,98.44 175.376,98.1067 175.5,97.5C 173.846,93.1715 171.179,90.5048 167.5,89.5C 169.415,87.9288 170.415,85.9288 170.5,83.5C 173.516,83.1594 176.182,81.9927 178.5,80C 179.949,74.2597 183.616,70.7597 189.5,69.5C 190.869,71.124 192.536,71.624 194.5,71C 200.167,67.1667 205.833,63.3333 211.5,59.5C 218.292,62.105 217.959,63.605 210.5,64C 210.833,64.3333 211.167,64.6667 211.5,65C 208.716,65.4362 207.55,66.9362 208,69.5C 209.753,68.373 211.587,67.373 213.5,66.5C 214.696,66.8457 214.696,67.3457 213.5,68C 210.624,70.6645 207.79,70.8311 205,68.5C 203.167,70.6667 201.333,72.8333 199.5,75C 196.67,75.869 194.003,77.0357 191.5,78.5C 196.838,79.6787 202.172,79.6787 207.5,78.5C 207.5,77.1667 207.5,75.8333 207.5,74.5C 210.106,73.8641 212.606,73.8641 215,74.5C 216.729,71.9211 218.562,71.9211 220.5,74.5C 222.098,73.5153 223.765,73.3486 225.5,74C 228.58,77.4205 231.913,77.9205 235.5,75.5C 235.439,77.5608 235.439,79.5608 235.5,81.5 Z"/></g>
<g><path style="opacity:1" fill="#d1c9cb" d="M 134.5,79.5 C 135.405,80.7024 135.405,82.0357 134.5,83.5C 132.731,82.038 131.064,80.3714 129.5,78.5C 131.421,77.359 133.421,77.1923 135.5,78C 134.944,78.3826 134.611,78.8826 134.5,79.5 Z"/></g>
<g><path style="opacity:1" fill="#3b3a37" d="M 255.5,78.5 C 255.5,82.5 255.5,86.5 255.5,90.5C 253.194,90.9926 250.861,91.3259 248.5,91.5C 248.5,90.5 248.5,89.5 248.5,88.5C 249.105,83.4115 249.105,78.4115 248.5,73.5C 249.117,73.3893 249.617,73.056 250,72.5C 251.699,74.6961 253.533,76.6961 255.5,78.5 Z"/></g>
<g><path style="opacity:1" fill="#b4b6bc" d="M 113.5,82.5 C 109.243,83.3072 105.243,84.6406 101.5,86.5C 100.167,86.8333 98.8333,87.1667 97.5,87.5C 95.8008,87.6602 94.1341,87.4935 92.5,87C 94.9252,85.7874 97.2585,84.6207 99.5,83.5C 105.269,82.7953 110.935,81.962 116.5,81C 115.756,82.0386 114.756,82.5386 113.5,82.5 Z"/></g>
<g><path style="opacity:1" fill="#7f7c7d" d="M 138.5,75.5 C 136.069,76.7409 136.069,77.9076 138.5,79C 138.272,79.3988 137.938,79.5654 137.5,79.5C 136.5,79.5 135.5,79.5 134.5,79.5C 134.611,78.8826 134.944,78.3826 135.5,78C 133.421,77.1923 131.421,77.359 129.5,78.5C 131.064,80.3714 132.731,82.038 134.5,83.5C 134.5,83.8333 134.5,84.1667 134.5,84.5C 132.139,84.6741 129.806,85.0074 127.5,85.5C 127.52,83.857 126.853,82.5237 125.5,81.5C 124.386,80.2241 123.386,80.2241 122.5,81.5C 120.621,81.6068 120.288,81.1068 121.5,80C 126.599,77.4672 131.932,75.6339 137.5,74.5C 138.107,74.6236 138.44,74.9569 138.5,75.5 Z"/></g>
<g><path style="opacity:1" fill="#49494a" d="M 134.5,84.5 C 132.723,85.6005 130.723,86.4338 128.5,87C 127.947,88.8778 126.947,90.3778 125.5,91.5C 126.329,89.8682 126.329,87.8682 125.5,85.5C 123.494,84.8196 121.827,84.8196 120.5,85.5C 119.417,85.4606 118.417,85.1272 117.5,84.5C 111.694,85.5905 106.027,86.9238 100.5,88.5C 101.263,87.7321 102.263,87.2321 103.5,87C 102.906,86.5357 102.239,86.369 101.5,86.5C 105.243,84.6406 109.243,83.3072 113.5,82.5C 113.917,83.1239 114.584,83.4573 115.5,83.5C 118.029,83.0711 120.362,82.4045 122.5,81.5C 123.386,80.2241 124.386,80.2241 125.5,81.5C 126.853,82.5237 127.52,83.857 127.5,85.5C 129.806,85.0074 132.139,84.6741 134.5,84.5 Z"/></g>
<g><path style="opacity:1" fill="#131514" d="M 140.5,70.5 C 141.841,72.8342 141.174,74.5009 138.5,75.5C 138.44,74.9569 138.107,74.6236 137.5,74.5C 131.932,75.6339 126.599,77.4672 121.5,80C 120.288,81.1068 120.621,81.6068 122.5,81.5C 120.362,82.4045 118.029,83.0711 115.5,83.5C 114.584,83.4573 113.917,83.1239 113.5,82.5C 114.756,82.5386 115.756,82.0386 116.5,81C 110.935,81.962 105.269,82.7953 99.5,83.5C 96.1606,83.8897 92.8273,84.3897 89.5,85C 83.411,87.5585 77.2444,89.7252 71,91.5C 67.4591,91.6676 64.7924,90.3343 63,87.5C 62.6174,88.056 62.1174,88.3893 61.5,88.5C 61.5,87.8333 61.1667,87.5 60.5,87.5C 58.2598,86.3128 55.7598,85.6462 53,85.5C 50.0496,86.8525 46.8829,87.5192 43.5,87.5C 40.0123,87.2992 36.679,86.6325 33.5,85.5C 33.7163,83.3193 32.883,81.6526 31,80.5C 30.6667,81.1667 30.3333,81.8333 30,82.5C 29.6162,79.9398 28.7829,77.6064 27.5,75.5C 28.5,76.1667 29.5,76.8333 30.5,77.5C 32.1198,79.9842 34.4531,81.4842 37.5,82C 43.5068,82.5006 49.5068,83.0006 55.5,83.5C 66.3141,84.7486 76.9807,84.7486 87.5,83.5C 106.117,82.7519 123.784,78.4186 140.5,70.5 Z"/></g>
<g><path style="opacity:1" fill="#a5a5a4" d="M 120.5,85.5 C 119.513,87.5511 118.18,89.2178 116.5,90.5C 111.297,89.3752 105.964,89.5419 100.5,91C 101.598,91.7697 101.598,92.603 100.5,93.5C 96.6479,91.5449 96.6479,89.8783 100.5,88.5C 106.027,86.9238 111.694,85.5905 117.5,84.5C 118.417,85.1272 119.417,85.4606 120.5,85.5 Z"/></g>
<g><path style="opacity:1" fill="#414643" d="M 27.5,73.5 C 27.5,74.1667 27.5,74.8333 27.5,75.5C 28.7829,77.6064 29.6162,79.9398 30,82.5C 30.3333,81.8333 30.6667,81.1667 31,80.5C 32.883,81.6526 33.7163,83.3193 33.5,85.5C 36.679,86.6325 40.0123,87.2992 43.5,87.5C 46.8829,87.5192 50.0496,86.8525 53,85.5C 55.7598,85.6462 58.2598,86.3128 60.5,87.5C 58.0109,89.4386 58.3442,89.7719 61.5,88.5C 62.1174,88.3893 62.6174,88.056 63,87.5C 64.7924,90.3343 67.4591,91.6676 71,91.5C 77.2444,89.7252 83.411,87.5585 89.5,85C 92.8273,84.3897 96.1606,83.8897 99.5,83.5C 97.2585,84.6207 94.9252,85.7874 92.5,87C 94.1341,87.4935 95.8008,87.6602 97.5,87.5C 95.7693,88.2066 94.1026,89.2066 92.5,90.5C 90.9017,89.5153 89.235,89.3486 87.5,90C 79.8962,95.356 71.5629,96.856 62.5,94.5C 61.1552,95.3467 60.1552,96.5134 59.5,98C 56.5,98.6667 53.5,98.6667 50.5,98C 49.1669,96.1598 49.3335,95.6598 51,96.5C 51.6518,93.406 51.3185,90.406 50,87.5C 49.6667,89.8333 49.3333,92.1667 49,94.5C 44.7092,92.9124 40.2092,91.7457 35.5,91C 33.8495,88.1869 31.8495,85.6869 29.5,83.5C 28.7717,85.1932 27.7717,86.6932 26.5,88C 28.0368,89.1096 28.7035,90.6096 28.5,92.5C 26.629,92.1412 25.129,91.1412 24,89.5C 23.0977,87.0731 22.2644,84.7397 21.5,82.5C 21.1924,80.076 21.5258,77.7427 22.5,75.5C 24.3932,76.0549 26.0599,75.3882 27.5,73.5 Z"/></g>
<g><path style="opacity:1" fill="#cac9c3" d="M 125.5,92.5 C 125.5,92.1667 125.5,91.8333 125.5,91.5C 126.947,90.3778 127.947,88.8778 128.5,87C 130.723,86.4338 132.723,85.6005 134.5,84.5C 140.736,83.3925 141.07,84.8925 135.5,89C 132.395,90.8681 129.062,92.0348 125.5,92.5 Z"/></g>
<g><path style="opacity:1" fill="#3c403f" d="M 124.5,94.5 C 122.883,95.038 121.216,95.3713 119.5,95.5C 120.779,94.2264 122.779,93.2264 125.5,92.5C 129.062,92.0348 132.395,90.8681 135.5,89C 141.07,84.8925 140.736,83.3925 134.5,84.5C 134.5,84.1667 134.5,83.8333 134.5,83.5C 135.405,82.0357 135.405,80.7024 134.5,79.5C 135.5,79.5 136.5,79.5 137.5,79.5C 136.913,80.7666 136.913,81.7666 137.5,82.5C 139.531,81.4613 140.864,79.7946 141.5,77.5C 141.833,78.1667 142.167,78.8333 142.5,79.5C 140.136,88.7031 134.136,93.7031 124.5,94.5 Z"/></g>
<g><path style="opacity:1" fill="#737370" d="M 125.5,91.5 C 125.5,91.8333 125.5,92.1667 125.5,92.5C 122.779,93.2264 120.779,94.2264 119.5,95.5C 119.158,96.3382 118.492,96.6716 117.5,96.5C 116.391,95.71 115.058,95.21 113.5,95C 114.5,94.6667 115.5,94.3333 116.5,94C 108.965,91.4617 108.965,90.2951 116.5,90.5C 118.18,89.2178 119.513,87.5511 120.5,85.5C 121.827,84.8196 123.494,84.8196 125.5,85.5C 126.329,87.8682 126.329,89.8682 125.5,91.5 Z"/></g>
<g><path style="opacity:1" fill="#525452" d="M 116.5,90.5 C 108.965,90.2951 108.965,91.4617 116.5,94C 115.5,94.3333 114.5,94.6667 113.5,95C 115.058,95.21 116.391,95.71 117.5,96.5C 114.518,96.9629 111.518,97.2962 108.5,97.5C 105.411,98.7846 102.078,99.4512 98.5,99.5C 98.5,98.5 98.5,97.5 98.5,96.5C 99.552,96.6495 100.552,96.4828 101.5,96C 100.748,95.3292 100.414,94.4959 100.5,93.5C 101.598,92.603 101.598,91.7697 100.5,91C 105.964,89.5419 111.297,89.3752 116.5,90.5 Z"/></g>
<g><path style="opacity:1" fill="#0d0e0e" d="M 97.5,87.5 C 98.8333,87.1667 100.167,86.8333 101.5,86.5C 102.239,86.369 102.906,86.5357 103.5,87C 102.263,87.2321 101.263,87.7321 100.5,88.5C 96.6479,89.8783 96.6479,91.5449 100.5,93.5C 100.414,94.4959 100.748,95.3292 101.5,96C 100.552,96.4828 99.552,96.6495 98.5,96.5C 98.5,97.5 98.5,98.5 98.5,99.5C 82.2252,104.732 65.5585,106.066 48.5,103.5C 42.8498,102.497 37.1831,101.163 31.5,99.5C 30.4706,97.4832 29.4706,95.4832 28.5,93.5C 28.5,93.1667 28.5,92.8333 28.5,92.5C 28.7035,90.6096 28.0368,89.1096 26.5,88C 27.7717,86.6932 28.7717,85.1932 29.5,83.5C 31.8495,85.6869 33.8495,88.1869 35.5,91C 40.2092,91.7457 44.7092,92.9124 49,94.5C 49.3333,92.1667 49.6667,89.8333 50,87.5C 51.3185,90.406 51.6518,93.406 51,96.5C 49.3335,95.6598 49.1669,96.1598 50.5,98C 53.5,98.6667 56.5,98.6667 59.5,98C 60.1552,96.5134 61.1552,95.3467 62.5,94.5C 71.5629,96.856 79.8962,95.356 87.5,90C 89.235,89.3486 90.9017,89.5153 92.5,90.5C 94.1026,89.2066 95.7693,88.2066 97.5,87.5 Z"/></g>
<g><path style="opacity:1" fill="#bcbcb8" d="M 60.5,87.5 C 61.1667,87.5 61.5,87.8333 61.5,88.5C 58.3442,89.7719 58.0109,89.4386 60.5,87.5 Z"/></g>
<g><path style="opacity:1" fill="#080b08" d="M 52.5,87.5 C 53.9778,87.238 55.3112,87.5713 56.5,88.5C 54.5352,94.9312 53.2019,94.5978 52.5,87.5 Z"/></g>
<g><path style="opacity:1" fill="#12100f" d="M 174.5,98.5 C 176.312,104.647 176.979,110.98 176.5,117.5C 175.596,118.209 175.263,119.209 175.5,120.5C 173.4,114.923 171.233,109.256 169,103.5C 164.515,96.9725 159.515,96.3058 154,101.5C 152.088,106.663 149.921,110.997 147.5,114.5C 149.199,106.602 152.866,99.7683 158.5,94C 165.595,89.6467 170.928,91.1467 174.5,98.5 Z"/></g>
<g><path style="opacity:1" fill="#a9b0b3" d="M 108.5,97.5 C 102.247,97.1847 102.58,96.518 109.5,95.5C 110.5,95.6667 111.5,95.8333 112.5,96C 110.942,96.21 109.609,96.71 108.5,97.5 Z"/></g>
<g><path style="opacity:1" fill="#849089" d="M 28.5,93.5 C 29.4706,95.4832 30.4706,97.4832 31.5,99.5C 30.6906,100.469 29.6906,101.302 28.5,102C 31.3591,103.26 34.0258,104.76 36.5,106.5C 34.8561,106.714 33.3561,106.38 32,105.5C 31.5304,106.577 31.6971,107.577 32.5,108.5C 32.7947,110.735 32.4614,112.735 31.5,114.5C 31.0074,112.194 30.6741,109.861 30.5,107.5C 28.8333,107.5 27.1667,107.5 25.5,107.5C 25.6567,106.127 25.49,104.793 25,103.5C 21.7247,102.114 18.8914,100.114 16.5,97.5C 17.0766,95.4501 18.4099,94.4501 20.5,94.5C 20.3505,93.448 20.5172,92.448 21,91.5C 23.2246,92.9389 25.2246,94.6055 27,96.5C 27.2321,95.2625 27.7321,94.2625 28.5,93.5 Z"/></g>
<g><path style="opacity:1" fill="#aca9a0" d="M 230.5,103.5 C 228.485,104.924 226.152,105.59 223.5,105.5C 221.863,104.782 220.197,104.616 218.5,105C 206.657,110.059 194.657,114.726 182.5,119C 181.748,119.671 181.414,120.504 181.5,121.5C 179.5,122.5 177.5,123.5 175.5,124.5C 175.5,123.167 175.5,121.833 175.5,120.5C 175.263,119.209 175.596,118.209 176.5,117.5C 176.351,118.552 176.517,119.552 177,120.5C 178.25,115.58 178.75,110.58 178.5,105.5C 183.348,103.697 188.348,102.863 193.5,103C 189.314,106.732 184.98,110.232 180.5,113.5C 180.833,113.833 181.167,114.167 181.5,114.5C 196.03,107.652 210.53,100.652 225,93.5C 230.154,97.2988 229.654,100.132 223.5,102C 225.74,102.977 228.073,103.477 230.5,103.5 Z"/></g>
<g><path style="opacity:1" fill="#8f8d89" d="M 244.5,92.5 C 244.5,93.8333 244.5,95.1667 244.5,96.5C 245.068,102.018 243.402,106.684 239.5,110.5C 235.945,108.271 235.612,105.604 238.5,102.5C 238.167,102.167 237.833,101.833 237.5,101.5C 236.833,102.167 236.167,102.833 235.5,103.5C 233.585,96.1492 234.585,89.3159 238.5,83C 240.367,82.2888 241.867,82.7888 243,84.5C 244.252,87.0135 244.752,89.6802 244.5,92.5 Z"/></g>
<g><path style="opacity:1" fill="#211e1e" d="M 235.5,95.5 C 239.337,96.203 239.503,97.5364 236,99.5C 235.51,98.2068 235.343,96.8734 235.5,95.5 Z"/></g>
<g><path style="opacity:1" fill="#605f5b" d="M 247.5,88.5 C 247.833,88.5 248.167,88.5 248.5,88.5C 248.5,89.5 248.5,90.5 248.5,91.5C 250.861,91.3259 253.194,90.9926 255.5,90.5C 255.5,104.5 255.5,118.5 255.5,132.5C 252.167,132.5 250.5,134.167 250.5,137.5C 248.473,137.662 246.473,137.495 244.5,137C 243.663,135.989 243.33,134.822 243.5,133.5C 242.178,133.67 241.011,133.337 240,132.5C 239.506,134.134 239.34,135.801 239.5,137.5C 233.531,135.662 227.864,136.329 222.5,139.5C 220.125,138.417 217.792,138.417 215.5,139.5C 215.667,139.833 215.833,140.167 216,140.5C 217.902,140.815 219.902,140.815 222,140.5C 225.432,143.034 225.265,143.701 221.5,142.5C 219.097,143.704 216.764,144.038 214.5,143.5C 211.279,147.173 208.279,147.173 205.5,143.5C 204.833,144.167 204.167,144.833 203.5,145.5C 201.401,143.466 199.068,143.132 196.5,144.5C 197.5,145.167 198.5,145.833 199.5,146.5C 198.289,147.72 198.289,148.887 199.5,150C 202.167,150.333 204.833,150.667 207.5,151C 205.913,151.862 204.246,152.529 202.5,153C 203.938,153.219 205.271,153.719 206.5,154.5C 204.833,155.167 203.167,155.833 201.5,156.5C 209.549,158.754 209.216,159.921 200.5,160C 200,160.5 199.5,161 199,161.5C 196.43,160.991 194.097,159.991 192,158.5C 189.772,159.892 188.606,161.892 188.5,164.5C 185.833,164.5 183.167,164.5 180.5,164.5C 179.469,163.751 178.302,163.085 177,162.5C 176.667,160.833 176.333,159.167 176,157.5C 175.346,158.696 174.846,158.696 174.5,157.5C 176.51,155.829 178.843,155.162 181.5,155.5C 182.322,152.318 182.322,149.318 181.5,146.5C 183.225,148.748 184.558,148.248 185.5,145C 187.392,144.027 189.392,143.36 191.5,143C 191.727,141.865 192.06,140.698 192.5,139.5C 194.5,139.167 196.5,138.833 198.5,138.5C 199.386,137.675 199.719,136.675 199.5,135.5C 202.237,134.787 204.904,134.787 207.5,135.5C 210.167,134.5 210.167,133.5 207.5,132.5C 208.776,131.355 210.109,131.355 211.5,132.5C 212.386,131.675 212.719,130.675 212.5,129.5C 216.203,129.138 219.203,127.471 221.5,124.5C 222.086,124.709 222.586,125.043 223,125.5C 225.02,123.873 226.853,122.039 228.5,120C 227.944,119.617 227.611,119.117 227.5,118.5C 229.099,118.768 230.432,118.434 231.5,117.5C 240.073,117.428 244.573,113.094 245,104.5C 245.801,101.633 245.634,98.9664 244.5,96.5C 244.5,95.1667 244.5,93.8333 244.5,92.5C 245.978,91.5525 246.978,90.2191 247.5,88.5 Z"/></g>
<g><path style="opacity:1" fill="#646c65" d="M 21.5,82.5 C 22.2644,84.7397 23.0977,87.0731 24,89.5C 25.129,91.1412 26.629,92.1412 28.5,92.5C 28.5,92.8333 28.5,93.1667 28.5,93.5C 27.7321,94.2625 27.2321,95.2625 27,96.5C 25.2246,94.6055 23.2246,92.9389 21,91.5C 20.5172,92.448 20.3505,93.448 20.5,94.5C 18.4099,94.4501 17.0766,95.4501 16.5,97.5C 18.8914,100.114 21.7247,102.114 25,103.5C 25.49,104.793 25.6567,106.127 25.5,107.5C 27.1667,107.5 28.8333,107.5 30.5,107.5C 30.6741,109.861 31.0074,112.194 31.5,114.5C 29.8008,114.34 28.1341,114.506 26.5,115C 26.7467,119.05 26.7467,123.05 26.5,127C 36.2459,129.085 45.9126,130.919 55.5,132.5C 49.1784,131.723 42.8451,131.556 36.5,132C 37.7375,132.232 38.7375,132.732 39.5,133.5C 32.4297,132.982 25.4297,131.982 18.5,130.5C 15.8562,128.031 13.0228,125.698 10,123.5C 9.99281,120.958 10.8261,118.624 12.5,116.5C 12.8333,116.5 13.1667,116.5 13.5,116.5C 14.4195,119.922 16.5861,122.255 20,123.5C 22.3296,120.541 22.9963,117.207 22,113.5C 18.8949,110.707 15.7283,108.04 12.5,105.5C 12.3341,100.489 12.5007,95.4889 13,90.5C 16.0309,87.9668 18.8643,85.3002 21.5,82.5 Z"/></g>
<g><path style="opacity:1" fill="#c2cece" d="M 124.5,94.5 C 127.057,95.4852 129.724,96.4852 132.5,97.5C 131.198,99.2012 129.531,100.368 127.5,101C 128.056,101.383 128.389,101.883 128.5,102.5C 128.04,103.765 126.707,104.931 124.5,106C 120.035,106.874 115.702,107.707 111.5,108.5C 96.2209,110.406 80.8876,110.239 65.5,108C 63.6992,107.683 63.3659,107.016 64.5,106C 58.3656,105.728 53.0323,104.895 48.5,103.5C 65.5585,106.066 82.2252,104.732 98.5,99.5C 102.078,99.4512 105.411,98.7846 108.5,97.5C 111.518,97.2962 114.518,96.9629 117.5,96.5C 118.492,96.6716 119.158,96.3382 119.5,95.5C 121.216,95.3713 122.883,95.038 124.5,94.5 Z"/></g>
<g><path style="opacity:1" fill="#c1c6c1" d="M 128.5,102.5 C 128.833,102.5 129.167,102.5 129.5,102.5C 130.469,103.309 131.302,104.309 132,105.5C 133.082,110.915 134.415,116.249 136,121.5C 137.009,119.975 137.509,118.308 137.5,116.5C 141.458,117.109 143.624,115.442 144,111.5C 144.985,113.175 145.819,114.842 146.5,116.5C 145.626,119.789 144.959,123.123 144.5,126.5C 144.665,129.85 144.498,133.183 144,136.5C 143.28,138.056 142.113,139.056 140.5,139.5C 138.236,140.219 135.903,140.552 133.5,140.5C 131.282,140.386 129.282,139.72 127.5,138.5C 129.292,137.691 131.292,137.191 133.5,137C 134.833,135.667 134.833,134.333 133.5,133C 131.753,132.648 130.086,132.148 128.5,131.5C 128.5,128.167 128.5,124.833 128.5,121.5C 128.683,119.064 128.016,116.897 126.5,115C 121.5,114.667 116.5,114.333 111.5,114C 109.221,113.527 107.221,112.527 105.5,111C 108.051,110.998 110.051,110.164 111.5,108.5C 115.702,107.707 120.035,106.874 124.5,106C 126.707,104.931 128.04,103.765 128.5,102.5 Z"/></g>
<g><path style="opacity:1" fill="#6c6f6b" d="M 36.5,106.5 C 49.2027,107.669 61.8694,109.169 74.5,111C 75.6023,113.401 75.769,115.901 75,118.5C 74.6667,116.5 74.3333,114.5 74,112.5C 73.5034,114.81 73.3367,117.143 73.5,119.5C 72.5269,117.052 72.1936,114.385 72.5,111.5C 59.1436,110.74 45.8103,109.74 32.5,108.5C 31.6971,107.577 31.5304,106.577 32,105.5C 33.3561,106.38 34.8561,106.714 36.5,106.5 Z"/></g>
<g><path style="opacity:1" fill="#1c1a18" d="M 247.5,88.5 C 246.978,90.2191 245.978,91.5525 244.5,92.5C 244.752,89.6802 244.252,87.0135 243,84.5C 241.867,82.7888 240.367,82.2888 238.5,83C 234.585,89.3159 233.585,96.1492 235.5,103.5C 236.167,102.833 236.833,102.167 237.5,101.5C 237.833,101.833 238.167,102.167 238.5,102.5C 235.612,105.604 235.945,108.271 239.5,110.5C 243.402,106.684 245.068,102.018 244.5,96.5C 245.634,98.9664 245.801,101.633 245,104.5C 244.573,113.094 240.073,117.428 231.5,117.5C 222.01,118.426 212.677,120.093 203.5,122.5C 206.288,121.357 208.621,119.524 210.5,117C 213.972,117.057 216.972,116.057 219.5,114C 214.844,113.335 210.177,112.835 205.5,112.5C 211.286,109.556 217.286,107.223 223.5,105.5C 226.152,105.59 228.485,104.924 230.5,103.5C 232.352,96.1984 234.018,88.8651 235.5,81.5C 236.655,78.5251 238.322,75.8584 240.5,73.5C 241.768,72.5721 243.101,72.4054 244.5,73C 246.832,77.8109 247.832,82.9775 247.5,88.5 Z"/></g>
<g><path style="opacity:1" fill="#a8afab" d="M 31.5,99.5 C 37.1831,101.163 42.8498,102.497 48.5,103.5C 53.0323,104.895 58.3656,105.728 64.5,106C 63.3659,107.016 63.6992,107.683 65.5,108C 80.8876,110.239 96.2209,110.406 111.5,108.5C 110.051,110.164 108.051,110.998 105.5,111C 107.221,112.527 109.221,113.527 111.5,114C 116.5,114.333 121.5,114.667 126.5,115C 128.016,116.897 128.683,119.064 128.5,121.5C 127.596,120.791 127.263,119.791 127.5,118.5C 125.194,118.007 122.861,117.674 120.5,117.5C 121.952,116.698 123.618,116.198 125.5,116C 116.469,115.936 107.469,116.602 98.5,118C 100.473,118.495 102.473,118.662 104.5,118.5C 101.678,119.507 98.678,120.34 95.5,121C 94.1772,121.816 93.5106,122.983 93.5,124.5C 90.9407,124.198 88.6074,124.532 86.5,125.5C 85.8333,125.5 85.1667,125.5 84.5,125.5C 84.5,124.167 84.5,122.833 84.5,121.5C 80.6403,121.192 76.9736,120.525 73.5,119.5C 73.3367,117.143 73.5034,114.81 74,112.5C 74.3333,114.5 74.6667,116.5 75,118.5C 75.769,115.901 75.6023,113.401 74.5,111C 61.8694,109.169 49.2027,107.669 36.5,106.5C 34.0258,104.76 31.3591,103.26 28.5,102C 29.6906,101.302 30.6906,100.469 31.5,99.5 Z"/></g>
<g><path style="opacity:1" fill="#090807" d="M 205.5,112.5 C 210.177,112.835 214.844,113.335 219.5,114C 216.972,116.057 213.972,117.057 210.5,117C 208.621,119.524 206.288,121.357 203.5,122.5C 197.669,124.906 191.669,127.072 185.5,129C 182.53,130.153 179.863,131.82 177.5,134C 176.207,134.49 174.873,134.657 173.5,134.5C 172.414,134.38 171.747,133.713 171.5,132.5C 172.223,130.218 172.557,127.884 172.5,125.5C 173.791,125.737 174.791,125.404 175.5,124.5C 177.5,123.5 179.5,122.5 181.5,121.5C 189.34,118.108 197.34,115.108 205.5,112.5 Z"/></g>
<g><path style="opacity:1" fill="#dee1dc" d="M 120.5,117.5 C 115.155,117.687 109.822,118.02 104.5,118.5C 102.473,118.662 100.473,118.495 98.5,118C 107.469,116.602 116.469,115.936 125.5,116C 123.618,116.198 121.952,116.698 120.5,117.5 Z"/></g>
<g><path style="opacity:1" fill="#8a8880" d="M 223.5,105.5 C 217.286,107.223 211.286,109.556 205.5,112.5C 197.34,115.108 189.34,118.108 181.5,121.5C 181.414,120.504 181.748,119.671 182.5,119C 194.657,114.726 206.657,110.059 218.5,105C 220.197,104.616 221.863,104.782 223.5,105.5 Z"/></g>
<g><path style="opacity:1" fill="#0a0c09" d="M 12.5,105.5 C 15.7283,108.04 18.8949,110.707 22,113.5C 22.9963,117.207 22.3296,120.541 20,123.5C 16.5861,122.255 14.4195,119.922 13.5,116.5C 14.0431,116.44 14.3764,116.107 14.5,115.5C 13.198,112.292 12.5313,108.959 12.5,105.5 Z"/></g>
<g><path style="opacity:1" fill="#0c0c0b" d="M 32.5,108.5 C 45.8103,109.74 59.1436,110.74 72.5,111.5C 72.1936,114.385 72.5269,117.052 73.5,119.5C 76.9736,120.525 80.6403,121.192 84.5,121.5C 84.5,122.833 84.5,124.167 84.5,125.5C 86.7938,129.24 89.4605,132.74 92.5,136C 91.9056,136.464 91.2389,136.631 90.5,136.5C 78.8885,135.091 67.2219,133.757 55.5,132.5C 45.9126,130.919 36.2459,129.085 26.5,127C 26.7467,123.05 26.7467,119.05 26.5,115C 28.1341,114.506 29.8008,114.34 31.5,114.5C 32.4614,112.735 32.7947,110.735 32.5,108.5 Z"/></g>
<g><path style="opacity:1" fill="#343434" d="M 38.5,123.5 C 39.7933,122.842 41.2933,122.508 43,122.5C 50.6315,123.245 58.4648,124.411 66.5,126C 63.7158,127.279 60.8824,127.779 58,127.5C 51.3427,126.61 44.8427,125.277 38.5,123.5 Z"/></g>
<g><path style="opacity:1" fill="#080807" d="M 164.5,148.5 C 161.519,151.488 157.852,153.154 153.5,153.5C 143.637,153.23 133.804,153.563 124,154.5C 121.551,154.139 119.218,153.472 117,152.5C 104.264,155.243 91.5977,154.909 79,151.5C 76.6491,151.82 74.3157,152.153 72,152.5C 71.6667,151.833 71.3333,151.167 71,150.5C 64.8707,151.679 58.704,151.679 52.5,150.5C 49.522,149.596 46.6887,148.262 44,146.5C 42.2739,147.576 40.4406,147.743 38.5,147C 32.7978,144.834 27.1312,142.667 21.5,140.5C 18.5071,141.942 15.8404,141.442 13.5,139C 16.2764,137.221 15.9431,136.221 12.5,136C 13.9733,135.29 14.6399,134.124 14.5,132.5C 15.8734,132.657 17.2068,132.49 18.5,132C 17.2617,131.31 17.2617,130.81 18.5,130.5C 25.4297,131.982 32.4297,132.982 39.5,133.5C 47.1657,136.027 55.1657,137.36 63.5,137.5C 67.9973,138.486 72.664,139.32 77.5,140C 95.4826,141.138 113.483,141.638 131.5,141.5C 131.611,142.117 131.944,142.617 132.5,143C 125.508,143.5 118.508,143.666 111.5,143.5C 111.5,144.5 111.5,145.5 111.5,146.5C 121.17,147.797 130.837,147.797 140.5,146.5C 141.438,144.09 141.438,141.756 140.5,139.5C 142.113,139.056 143.28,138.056 144,136.5C 144.498,133.183 144.665,129.85 144.5,126.5C 146.131,131.935 147.631,137.602 149,143.5C 149.041,136.996 149.708,130.662 151,124.5C 151.546,127.855 151.379,131.188 150.5,134.5C 151.095,138.198 152.262,141.864 154,145.5C 156.62,146.311 158.953,147.644 161,149.5C 161.95,148.978 162.784,148.311 163.5,147.5C 164.107,147.624 164.44,147.957 164.5,148.5 Z"/></g>
<g><path style="opacity:1" fill="#222425" d="M 120.5,117.5 C 122.861,117.674 125.194,118.007 127.5,118.5C 127.263,119.791 127.596,120.791 128.5,121.5C 128.5,124.833 128.5,128.167 128.5,131.5C 119.658,133.598 110.658,134.432 101.5,134C 97.7676,131.684 95.101,128.518 93.5,124.5C 93.5106,122.983 94.1772,121.816 95.5,121C 98.678,120.34 101.678,119.507 104.5,118.5C 109.822,118.02 115.155,117.687 120.5,117.5 Z"/></g>
<g><path style="opacity:1" fill="#1f1e1e" d="M 175.5,120.5 C 175.5,121.833 175.5,123.167 175.5,124.5C 174.791,125.404 173.791,125.737 172.5,125.5C 172.557,127.884 172.223,130.218 171.5,132.5C 171.747,133.713 172.414,134.38 173.5,134.5C 171.571,136.06 170.238,138.06 169.5,140.5C 168.291,143.614 166.624,146.281 164.5,148.5C 164.44,147.957 164.107,147.624 163.5,147.5C 162.784,148.311 161.95,148.978 161,149.5C 158.953,147.644 156.62,146.311 154,145.5C 152.262,141.864 151.095,138.198 150.5,134.5C 151.379,131.188 151.546,127.855 151,124.5C 149.708,130.662 149.041,136.996 149,143.5C 147.631,137.602 146.131,131.935 144.5,126.5C 144.959,123.123 145.626,119.789 146.5,116.5C 146.328,115.508 146.662,114.842 147.5,114.5C 149.921,110.997 152.088,106.663 154,101.5C 159.515,96.3058 164.515,96.9725 169,103.5C 171.233,109.256 173.4,114.923 175.5,120.5 Z"/></g>
<g><path style="opacity:1" fill="#646461" d="M 169.5,116.5 C 171.287,124.754 170.12,132.754 166,140.5C 161.651,145.953 157.818,145.62 154.5,139.5C 154.833,139.5 155.167,139.5 155.5,139.5C 156.167,139.5 156.833,139.5 157.5,139.5C 157.369,140.239 157.536,140.906 158,141.5C 158.953,139.545 160.287,137.878 162,136.5C 162.333,134.833 162.667,133.167 163,131.5C 163.333,131.833 163.667,132.167 164,132.5C 164.318,130.939 165.151,129.772 166.5,129C 165.748,128.329 165.414,127.496 165.5,126.5C 166.847,125.829 168.014,125.829 169,126.5C 169.667,124.167 169.667,121.833 169,119.5C 167.956,120.623 167.29,121.956 167,123.5C 166.667,123.167 166.333,122.833 166,122.5C 166.019,120.893 166.185,119.226 166.5,117.5C 167.791,117.737 168.791,117.404 169.5,116.5 Z"/></g>
<g><path style="opacity:1" fill="#888781" d="M 153.5,119.5 C 152.789,122.864 153.956,125.197 157,126.5C 157.934,125.142 158.768,123.808 159.5,122.5C 159.721,125.097 160.221,125.097 161,122.5C 161.822,124.788 162.489,127.122 163,129.5C 163.377,128.058 164.21,127.058 165.5,126.5C 165.414,127.496 165.748,128.329 166.5,129C 165.151,129.772 164.318,130.939 164,132.5C 163.667,132.167 163.333,131.833 163,131.5C 162.667,133.167 162.333,134.833 162,136.5C 160.287,137.878 158.953,139.545 158,141.5C 157.536,140.906 157.369,140.239 157.5,139.5C 159.248,137.84 159.748,135.84 159,133.5C 156.54,134.755 155.373,136.755 155.5,139.5C 155.167,139.5 154.833,139.5 154.5,139.5C 152.448,132.805 152.115,126.138 153.5,119.5 Z"/></g>
<g><path style="opacity:1" fill="#0b0b0b" d="M 153.5,128.5 C 154.833,128.5 156.167,128.5 157.5,128.5C 157.833,131.5 156.5,132.833 153.5,132.5C 153.5,131.167 153.5,129.833 153.5,128.5 Z"/></g>
<g><path style="opacity:1" fill="#595651" d="M 165.5,126.5 C 164.21,127.058 163.377,128.058 163,129.5C 162.489,127.122 161.822,124.788 161,122.5C 160.221,125.097 159.721,125.097 159.5,122.5C 154.632,122.098 153.465,119.765 156,115.5C 157.542,117.304 159.209,118.971 161,120.5C 161.667,119.167 162.333,117.833 163,116.5C 163.333,116.833 163.667,117.167 164,117.5C 164.14,114.957 164.806,112.623 166,110.5C 166.692,111.025 167.192,111.692 167.5,112.5C 166.451,115.823 165.117,118.99 163.5,122C 164.414,123.406 165.08,124.906 165.5,126.5 Z"/></g>
<g><path style="opacity:1" fill="#a39f99" d="M 169.5,116.5 C 168.791,117.404 167.791,117.737 166.5,117.5C 166.185,119.226 166.019,120.893 166,122.5C 166.333,122.833 166.667,123.167 167,123.5C 167.29,121.956 167.956,120.623 169,119.5C 169.667,121.833 169.667,124.167 169,126.5C 168.014,125.829 166.847,125.829 165.5,126.5C 165.08,124.906 164.414,123.406 163.5,122C 165.117,118.99 166.451,115.823 167.5,112.5C 167.192,111.692 166.692,111.025 166,110.5C 164.806,112.623 164.14,114.957 164,117.5C 163.667,117.167 163.333,116.833 163,116.5C 162.333,117.833 161.667,119.167 161,120.5C 159.209,118.971 157.542,117.304 156,115.5C 153.465,119.765 154.632,122.098 159.5,122.5C 158.768,123.808 157.934,125.142 157,126.5C 153.956,125.197 152.789,122.864 153.5,119.5C 154.286,113.583 157.286,109.249 162.5,106.5C 167.155,108.162 169.489,111.496 169.5,116.5 Z"/></g>
<g><path style="opacity:1" fill="#1e1c19" d="M 160.5,108.5 C 161.033,111.196 161.2,114.196 161,117.5C 159.426,114.508 159.259,111.508 160.5,108.5 Z"/></g>
<g><path style="opacity:1" fill="#565b59" d="M 39.5,133.5 C 47.8411,133.738 55.8411,135.071 63.5,137.5C 55.1657,137.36 47.1657,136.027 39.5,133.5 Z"/></g>
<g><path style="opacity:1" fill="#9aa2a0" d="M 55.5,132.5 C 67.2219,133.757 78.8885,135.091 90.5,136.5C 94.7209,138.932 94.2209,139.932 89,139.5C 80.5214,138.502 72.0214,137.835 63.5,137.5C 55.8411,135.071 47.8411,133.738 39.5,133.5C 38.7375,132.732 37.7375,132.232 36.5,132C 42.8451,131.556 49.1784,131.723 55.5,132.5 Z"/></g>
<g><path style="opacity:1" fill="#141414" d="M 157.5,139.5 C 156.833,139.5 156.167,139.5 155.5,139.5C 155.373,136.755 156.54,134.755 159,133.5C 159.748,135.84 159.248,137.84 157.5,139.5 Z"/></g>
<g><path style="opacity:1" fill="#393938" d="M 231.5,117.5 C 230.432,118.434 229.099,118.768 227.5,118.5C 215.626,123.303 203.626,127.803 191.5,132C 187.48,134.272 183.48,136.439 179.5,138.5C 176.247,139.598 172.914,140.264 169.5,140.5C 170.238,138.06 171.571,136.06 173.5,134.5C 174.873,134.657 176.207,134.49 177.5,134C 179.863,131.82 182.53,130.153 185.5,129C 191.669,127.072 197.669,124.906 203.5,122.5C 212.677,120.093 222.01,118.426 231.5,117.5 Z"/></g>
<g><path style="opacity:1" fill="#cbd5d3" d="M 93.5,124.5 C 95.101,128.518 97.7676,131.684 101.5,134C 110.658,134.432 119.658,133.598 128.5,131.5C 130.086,132.148 131.753,132.648 133.5,133C 134.833,134.333 134.833,135.667 133.5,137C 131.292,137.191 129.292,137.691 127.5,138.5C 117.503,139.157 107.503,139.324 97.5,139C 92.8633,135.206 89.1966,130.706 86.5,125.5C 88.6074,124.532 90.9407,124.198 93.5,124.5 Z"/></g>
<g><path style="opacity:1" fill="#757874" d="M 84.5,125.5 C 85.1667,125.5 85.8333,125.5 86.5,125.5C 89.1966,130.706 92.8633,135.206 97.5,139C 107.503,139.324 117.503,139.157 127.5,138.5C 129.282,139.72 131.282,140.386 133.5,140.5C 133.158,141.338 132.492,141.672 131.5,141.5C 113.483,141.638 95.4826,141.138 77.5,140C 72.664,139.32 67.9973,138.486 63.5,137.5C 72.0214,137.835 80.5214,138.502 89,139.5C 94.2209,139.932 94.7209,138.932 90.5,136.5C 91.2389,136.631 91.9056,136.464 92.5,136C 89.4605,132.74 86.7938,129.24 84.5,125.5 Z"/></g>
<g><path style="opacity:1" fill="#21211e" d="M 140.5,139.5 C 141.438,141.756 141.438,144.09 140.5,146.5C 130.837,147.797 121.17,147.797 111.5,146.5C 111.5,145.5 111.5,144.5 111.5,143.5C 118.508,143.666 125.508,143.5 132.5,143C 131.944,142.617 131.611,142.117 131.5,141.5C 132.492,141.672 133.158,141.338 133.5,140.5C 135.903,140.552 138.236,140.219 140.5,139.5 Z"/></g>
<g><path style="opacity:1" fill="#161614" d="M 12.5,116.5 C 10.8261,118.624 9.99281,120.958 10,123.5C 13.0228,125.698 15.8562,128.031 18.5,130.5C 17.2617,130.81 17.2617,131.31 18.5,132C 17.2068,132.49 15.8734,132.657 14.5,132.5C 14.6399,134.124 13.9733,135.29 12.5,136C 15.9431,136.221 16.2764,137.221 13.5,139C 15.8404,141.442 18.5071,141.942 21.5,140.5C 27.1312,142.667 32.7978,144.834 38.5,147C 40.4406,147.743 42.2739,147.576 44,146.5C 46.6887,148.262 49.522,149.596 52.5,150.5C 58.704,151.679 64.8707,151.679 71,150.5C 71.3333,151.167 71.6667,151.833 72,152.5C 74.3157,152.153 76.6491,151.82 79,151.5C 91.5977,154.909 104.264,155.243 117,152.5C 119.218,153.472 121.551,154.139 124,154.5C 133.804,153.563 143.637,153.23 153.5,153.5C 151.735,154.461 149.735,154.795 147.5,154.5C 141.278,156.005 134.945,156.672 128.5,156.5C 118.671,155.776 108.838,155.776 99,156.5C 80.1555,155.356 61.3222,154.19 42.5,153C 38.825,152.443 35.4917,151.11 32.5,149C 22.5965,148.858 13.5965,146.025 5.5,140.5C 4.66978,138.865 4.50312,137.198 5,135.5C -0.253924,133.847 -0.420591,132.847 4.5,132.5C 4.5,131.5 4.5,130.5 4.5,129.5C 6.43304,129.271 8.09971,128.438 9.5,127C 8.69194,126.692 8.02527,126.192 7.5,125.5C 8.37422,123.253 8.70755,120.92 8.5,118.5C 5.48237,118.704 2.48237,119.037 -0.5,119.5C -0.5,119.167 -0.5,118.833 -0.5,118.5C 3.85215,116.643 8.18549,115.976 12.5,116.5 Z"/></g>
<g><path style="opacity:1" fill="#282824" d="M 128.5,156.5 C 128.158,157.338 127.492,157.672 126.5,157.5C 97.2083,158.91 68.0416,157.577 39,153.5C 36.2413,154.398 33.5746,154.731 31,154.5C 27.3733,152.069 23.7067,150.402 20,149.5C 13.233,150.789 6.39967,151.456 -0.5,151.5C -0.5,140.833 -0.5,130.167 -0.5,119.5C 2.48237,119.037 5.48237,118.704 8.5,118.5C 8.70755,120.92 8.37422,123.253 7.5,125.5C 8.02527,126.192 8.69194,126.692 9.5,127C 8.09971,128.438 6.43304,129.271 4.5,129.5C 4.5,130.5 4.5,131.5 4.5,132.5C -0.420591,132.847 -0.253924,133.847 5,135.5C 4.50312,137.198 4.66978,138.865 5.5,140.5C 13.5965,146.025 22.5965,148.858 32.5,149C 35.4917,151.11 38.825,152.443 42.5,153C 61.3222,154.19 80.1555,155.356 99,156.5C 108.838,155.776 118.671,155.776 128.5,156.5 Z"/></g>
<g><path style="opacity:1" fill="#65635e" d="M 255.5,132.5 C 255.5,133.167 255.5,133.833 255.5,134.5C 244.5,144.5 233.5,154.5 222.5,164.5C 211.167,164.5 199.833,164.5 188.5,164.5C 188.606,161.892 189.772,159.892 192,158.5C 194.097,159.991 196.43,160.991 199,161.5C 199.5,161 200,160.5 200.5,160C 209.216,159.921 209.549,158.754 201.5,156.5C 203.167,155.833 204.833,155.167 206.5,154.5C 205.271,153.719 203.938,153.219 202.5,153C 204.246,152.529 205.913,151.862 207.5,151C 204.833,150.667 202.167,150.333 199.5,150C 198.289,148.887 198.289,147.72 199.5,146.5C 198.5,145.833 197.5,145.167 196.5,144.5C 199.068,143.132 201.401,143.466 203.5,145.5C 204.167,144.833 204.833,144.167 205.5,143.5C 208.279,147.173 211.279,147.173 214.5,143.5C 216.764,144.038 219.097,143.704 221.5,142.5C 225.265,143.701 225.432,143.034 222,140.5C 219.902,140.815 217.902,140.815 216,140.5C 215.833,140.167 215.667,139.833 215.5,139.5C 217.792,138.417 220.125,138.417 222.5,139.5C 227.864,136.329 233.531,135.662 239.5,137.5C 239.34,135.801 239.506,134.134 240,132.5C 241.011,133.337 242.178,133.67 243.5,133.5C 243.33,134.822 243.663,135.989 244.5,137C 246.473,137.495 248.473,137.662 250.5,137.5C 250.5,134.167 252.167,132.5 255.5,132.5 Z"/></g>
<g><path style="opacity:1" fill="#595956" d="M 227.5,118.5 C 227.611,119.117 227.944,119.617 228.5,120C 226.853,122.039 225.02,123.873 223,125.5C 222.586,125.043 222.086,124.709 221.5,124.5C 219.203,127.471 216.203,129.138 212.5,129.5C 212.719,130.675 212.386,131.675 211.5,132.5C 210.109,131.355 208.776,131.355 207.5,132.5C 210.167,133.5 210.167,134.5 207.5,135.5C 204.904,134.787 202.237,134.787 199.5,135.5C 199.719,136.675 199.386,137.675 198.5,138.5C 196.5,138.833 194.5,139.167 192.5,139.5C 192.06,140.698 191.727,141.865 191.5,143C 189.392,143.36 187.392,144.027 185.5,145C 184.558,148.248 183.225,148.748 181.5,146.5C 182.322,149.318 182.322,152.318 181.5,155.5C 178.843,155.162 176.51,155.829 174.5,157.5C 174.846,158.696 175.346,158.696 176,157.5C 176.333,159.167 176.667,160.833 177,162.5C 178.302,163.085 179.469,163.751 180.5,164.5C 158.5,164.5 136.5,164.5 114.5,164.5C 115.616,162.492 117.449,161.492 120,161.5C 121.326,161.755 122.326,162.422 123,163.5C 123.999,159.763 125.332,159.763 127,163.5C 127.374,162.584 127.874,161.75 128.5,161C 131.047,160.933 133.214,160.099 135,158.5C 136.314,159.313 137.481,160.313 138.5,161.5C 139.931,161.023 141.264,160.357 142.5,159.5C 141.167,159.167 139.833,158.833 138.5,158.5C 142.002,157.993 145.002,156.66 147.5,154.5C 149.735,154.795 151.735,154.461 153.5,153.5C 157.852,153.154 161.519,151.488 164.5,148.5C 166.624,146.281 168.291,143.614 169.5,140.5C 172.914,140.264 176.247,139.598 179.5,138.5C 183.48,136.439 187.48,134.272 191.5,132C 203.626,127.803 215.626,123.303 227.5,118.5 Z"/></g>
<g><path style="opacity:1" fill="#3a3936" d="M 126.5,157.5 C 112.363,159.714 98.0296,160.048 83.5,158.5C 76.3477,159.317 69.181,159.984 62,160.5C 58.4651,160.643 55.1317,159.976 52,158.5C 48.6358,159.739 45.1358,160.406 41.5,160.5C 41.5,161.5 41.5,162.5 41.5,163.5C 40.209,163.263 39.209,163.596 38.5,164.5C 25.5,164.5 12.5,164.5 -0.5,164.5C -0.5,160.167 -0.5,155.833 -0.5,151.5C 6.39967,151.456 13.233,150.789 20,149.5C 23.7067,150.402 27.3733,152.069 31,154.5C 33.5746,154.731 36.2413,154.398 39,153.5C 68.0416,157.577 97.2083,158.91 126.5,157.5 Z"/></g>
<g><path style="opacity:1" fill="#444240" d="M 147.5,154.5 C 145.002,156.66 142.002,157.993 138.5,158.5C 139.833,158.833 141.167,159.167 142.5,159.5C 141.264,160.357 139.931,161.023 138.5,161.5C 137.481,160.313 136.314,159.313 135,158.5C 133.214,160.099 131.047,160.933 128.5,161C 127.874,161.75 127.374,162.584 127,163.5C 125.332,159.763 123.999,159.763 123,163.5C 122.326,162.422 121.326,161.755 120,161.5C 117.449,161.492 115.616,162.492 114.5,164.5C 89.1667,164.5 63.8333,164.5 38.5,164.5C 39.209,163.596 40.209,163.263 41.5,163.5C 41.5,162.5 41.5,161.5 41.5,160.5C 45.1358,160.406 48.6358,159.739 52,158.5C 55.1317,159.976 58.4651,160.643 62,160.5C 69.181,159.984 76.3477,159.317 83.5,158.5C 98.0296,160.048 112.363,159.714 126.5,157.5C 127.492,157.672 128.158,157.338 128.5,156.5C 134.945,156.672 141.278,156.005 147.5,154.5 Z"/></g>
<g><path style="opacity:1" fill="#f2d5b1" d="M 255.5,134.5 C 255.5,144.5 255.5,154.5 255.5,164.5C 244.5,164.5 233.5,164.5 222.5,164.5C 233.5,154.5 244.5,144.5 255.5,134.5 Z"/></g>
</svg>
